%
M48
M72
T01C0.01378
T02C0.03543
T03C0.03937
T04C0.04000
%
T01
X59249Y36953
X71847Y34591
X71453Y44434
X63973Y52701
X73816Y72386
X84446Y64906
X93107Y58607
X99800Y65693
X112398Y64119
X112398Y68843
X85233Y51520
X85233Y26323
X121847Y35772
T02
X108343Y43213
X76847Y43213
T03
X59642Y43252
X126572Y43252
T04
X108068Y14867
X98068Y14867
X88068Y14867
X78068Y14867
X83068Y73331
X93068Y73331
X103068Y73331
M30
