G75*
%MOIN*%
%OFA0B0*%
%FSLAX25Y25*%
%IPPOS*%
%LPD*%
%AMOC8*
5,1,8,0,0,1.08239X$1,22.5*
%
%ADD10C,0.00800*%
%ADD11C,0.00100*%
%ADD12C,0.02200*%
%ADD13R,0.03000X0.01800*%
%ADD14R,0.01800X0.03000*%
%ADD15C,0.00500*%
D10*
X0069627Y0032625D02*
X0072429Y0032625D01*
X0069627Y0032625D02*
X0069627Y0036829D01*
X0082852Y0040708D02*
X0090090Y0033470D01*
X0095379Y0035975D02*
X0096493Y0034861D01*
X0100947Y0039316D01*
X0099833Y0040429D01*
X0102339Y0045719D02*
X0095101Y0052957D01*
X0089811Y0050451D02*
X0088698Y0051565D01*
X0084243Y0047111D01*
X0085357Y0045997D01*
X0087595Y0043213D02*
X0087597Y0043354D01*
X0087603Y0043495D01*
X0087613Y0043635D01*
X0087627Y0043775D01*
X0087645Y0043915D01*
X0087666Y0044054D01*
X0087692Y0044193D01*
X0087721Y0044331D01*
X0087755Y0044467D01*
X0087792Y0044603D01*
X0087833Y0044738D01*
X0087878Y0044872D01*
X0087927Y0045004D01*
X0087979Y0045135D01*
X0088035Y0045264D01*
X0088095Y0045391D01*
X0088158Y0045517D01*
X0088224Y0045641D01*
X0088295Y0045764D01*
X0088368Y0045884D01*
X0088445Y0046002D01*
X0088525Y0046118D01*
X0088609Y0046231D01*
X0088695Y0046342D01*
X0088785Y0046451D01*
X0088878Y0046557D01*
X0088973Y0046660D01*
X0089072Y0046761D01*
X0089173Y0046859D01*
X0089277Y0046954D01*
X0089384Y0047046D01*
X0089493Y0047135D01*
X0089605Y0047220D01*
X0089719Y0047303D01*
X0089835Y0047383D01*
X0089954Y0047459D01*
X0090075Y0047531D01*
X0090197Y0047601D01*
X0090322Y0047666D01*
X0090448Y0047729D01*
X0090576Y0047787D01*
X0090706Y0047842D01*
X0090837Y0047894D01*
X0090970Y0047941D01*
X0091104Y0047985D01*
X0091239Y0048026D01*
X0091375Y0048062D01*
X0091512Y0048094D01*
X0091650Y0048123D01*
X0091788Y0048148D01*
X0091928Y0048168D01*
X0092068Y0048185D01*
X0092208Y0048198D01*
X0092349Y0048207D01*
X0092489Y0048212D01*
X0092630Y0048213D01*
X0092771Y0048210D01*
X0092912Y0048203D01*
X0093052Y0048192D01*
X0093192Y0048177D01*
X0093332Y0048158D01*
X0093471Y0048136D01*
X0093609Y0048109D01*
X0093747Y0048079D01*
X0093883Y0048044D01*
X0094019Y0048006D01*
X0094153Y0047964D01*
X0094287Y0047918D01*
X0094419Y0047869D01*
X0094549Y0047815D01*
X0094678Y0047758D01*
X0094805Y0047698D01*
X0094931Y0047634D01*
X0095054Y0047566D01*
X0095176Y0047495D01*
X0095296Y0047421D01*
X0095413Y0047343D01*
X0095528Y0047262D01*
X0095641Y0047178D01*
X0095752Y0047091D01*
X0095860Y0047000D01*
X0095965Y0046907D01*
X0096068Y0046810D01*
X0096168Y0046711D01*
X0096265Y0046609D01*
X0096359Y0046504D01*
X0096450Y0046397D01*
X0096538Y0046287D01*
X0096623Y0046175D01*
X0096705Y0046060D01*
X0096784Y0045943D01*
X0096859Y0045824D01*
X0096931Y0045703D01*
X0096999Y0045580D01*
X0097064Y0045455D01*
X0097126Y0045328D01*
X0097183Y0045199D01*
X0097238Y0045069D01*
X0097288Y0044938D01*
X0097335Y0044805D01*
X0097378Y0044671D01*
X0097417Y0044535D01*
X0097452Y0044399D01*
X0097484Y0044262D01*
X0097511Y0044124D01*
X0097535Y0043985D01*
X0097555Y0043845D01*
X0097571Y0043705D01*
X0097583Y0043565D01*
X0097591Y0043424D01*
X0097595Y0043283D01*
X0097595Y0043143D01*
X0097591Y0043002D01*
X0097583Y0042861D01*
X0097571Y0042721D01*
X0097555Y0042581D01*
X0097535Y0042441D01*
X0097511Y0042302D01*
X0097484Y0042164D01*
X0097452Y0042027D01*
X0097417Y0041891D01*
X0097378Y0041755D01*
X0097335Y0041621D01*
X0097288Y0041488D01*
X0097238Y0041357D01*
X0097183Y0041227D01*
X0097126Y0041098D01*
X0097064Y0040971D01*
X0096999Y0040846D01*
X0096931Y0040723D01*
X0096859Y0040602D01*
X0096784Y0040483D01*
X0096705Y0040366D01*
X0096623Y0040251D01*
X0096538Y0040139D01*
X0096450Y0040029D01*
X0096359Y0039922D01*
X0096265Y0039817D01*
X0096168Y0039715D01*
X0096068Y0039616D01*
X0095965Y0039519D01*
X0095860Y0039426D01*
X0095752Y0039335D01*
X0095641Y0039248D01*
X0095528Y0039164D01*
X0095413Y0039083D01*
X0095296Y0039005D01*
X0095176Y0038931D01*
X0095054Y0038860D01*
X0094931Y0038792D01*
X0094805Y0038728D01*
X0094678Y0038668D01*
X0094549Y0038611D01*
X0094419Y0038557D01*
X0094287Y0038508D01*
X0094153Y0038462D01*
X0094019Y0038420D01*
X0093883Y0038382D01*
X0093747Y0038347D01*
X0093609Y0038317D01*
X0093471Y0038290D01*
X0093332Y0038268D01*
X0093192Y0038249D01*
X0093052Y0038234D01*
X0092912Y0038223D01*
X0092771Y0038216D01*
X0092630Y0038213D01*
X0092489Y0038214D01*
X0092349Y0038219D01*
X0092208Y0038228D01*
X0092068Y0038241D01*
X0091928Y0038258D01*
X0091788Y0038278D01*
X0091650Y0038303D01*
X0091512Y0038332D01*
X0091375Y0038364D01*
X0091239Y0038400D01*
X0091104Y0038441D01*
X0090970Y0038485D01*
X0090837Y0038532D01*
X0090706Y0038584D01*
X0090576Y0038639D01*
X0090448Y0038697D01*
X0090322Y0038760D01*
X0090197Y0038825D01*
X0090075Y0038895D01*
X0089954Y0038967D01*
X0089835Y0039043D01*
X0089719Y0039123D01*
X0089605Y0039206D01*
X0089493Y0039291D01*
X0089384Y0039380D01*
X0089277Y0039472D01*
X0089173Y0039567D01*
X0089072Y0039665D01*
X0088973Y0039766D01*
X0088878Y0039869D01*
X0088785Y0039975D01*
X0088695Y0040084D01*
X0088609Y0040195D01*
X0088525Y0040308D01*
X0088445Y0040424D01*
X0088368Y0040542D01*
X0088295Y0040662D01*
X0088224Y0040785D01*
X0088158Y0040909D01*
X0088095Y0041035D01*
X0088035Y0041162D01*
X0087979Y0041291D01*
X0087927Y0041422D01*
X0087878Y0041554D01*
X0087833Y0041688D01*
X0087792Y0041823D01*
X0087755Y0041959D01*
X0087721Y0042095D01*
X0087692Y0042233D01*
X0087666Y0042372D01*
X0087645Y0042511D01*
X0087627Y0042651D01*
X0087613Y0042791D01*
X0087603Y0042931D01*
X0087597Y0043072D01*
X0087595Y0043213D01*
X0072064Y0063185D02*
X0070663Y0063185D01*
X0069962Y0063886D01*
X0069962Y0067389D01*
X0072765Y0067389D02*
X0072765Y0063886D01*
X0072064Y0063185D01*
X0078068Y0070831D02*
X0078068Y0075831D01*
X0080568Y0078331D01*
X0085568Y0078331D01*
X0088068Y0075831D01*
X0090568Y0078331D01*
X0095568Y0078331D01*
X0098068Y0075831D01*
X0100568Y0078331D01*
X0105568Y0078331D01*
X0108068Y0075831D01*
X0108068Y0070831D01*
X0105568Y0068331D01*
X0100568Y0068331D01*
X0098068Y0070831D01*
X0095568Y0068331D01*
X0090568Y0068331D01*
X0088068Y0070831D01*
X0085568Y0068331D01*
X0080568Y0068331D01*
X0078068Y0070831D01*
X0111773Y0066903D02*
X0111773Y0062700D01*
X0111773Y0064101D02*
X0113875Y0064101D01*
X0114575Y0064802D01*
X0114575Y0066203D01*
X0113875Y0066903D01*
X0111773Y0066903D01*
X0113174Y0064101D02*
X0114575Y0062700D01*
X0115056Y0033573D02*
X0112954Y0033573D01*
X0112954Y0029369D01*
X0115056Y0029369D01*
X0115757Y0030070D01*
X0115757Y0032872D01*
X0115056Y0033573D01*
X0110568Y0019867D02*
X0105568Y0019867D01*
X0103068Y0017367D01*
X0100568Y0019867D01*
X0095568Y0019867D01*
X0093068Y0017367D01*
X0090568Y0019867D01*
X0085568Y0019867D01*
X0083068Y0017367D01*
X0080568Y0019867D01*
X0075568Y0019867D01*
X0073068Y0017367D01*
X0073068Y0012367D01*
X0075568Y0009867D01*
X0080568Y0009867D01*
X0083068Y0012367D01*
X0085568Y0009867D01*
X0090568Y0009867D01*
X0093068Y0012367D01*
X0095568Y0009867D01*
X0100568Y0009867D01*
X0103068Y0012367D01*
X0105568Y0009867D01*
X0110568Y0009867D01*
X0113068Y0012367D01*
X0113068Y0017367D01*
X0110568Y0019867D01*
D11*
X0059665Y0059101D02*
X0059665Y0060602D01*
X0059665Y0059852D02*
X0060665Y0059852D01*
X0061138Y0059852D02*
X0062139Y0059852D01*
X0062139Y0060102D02*
X0062139Y0059101D01*
X0062611Y0059101D02*
X0062611Y0060602D01*
X0062139Y0060102D02*
X0061638Y0060602D01*
X0061138Y0060102D01*
X0061138Y0059101D01*
X0060665Y0059101D02*
X0060665Y0060602D01*
X0062611Y0059101D02*
X0063612Y0059101D01*
X0063406Y0059196D02*
X0063406Y0058696D01*
X0063656Y0058446D01*
X0064657Y0058446D01*
X0064907Y0058696D01*
X0064907Y0059196D01*
X0064657Y0059447D01*
X0064907Y0059919D02*
X0063906Y0060920D01*
X0063656Y0060920D01*
X0063406Y0060670D01*
X0063406Y0060169D01*
X0063656Y0059919D01*
X0063656Y0059447D02*
X0063406Y0059196D01*
X0064084Y0059101D02*
X0064084Y0060602D01*
X0064907Y0060920D02*
X0064907Y0059919D01*
X0065558Y0059852D02*
X0066558Y0059852D01*
X0067031Y0059852D02*
X0067531Y0059852D01*
X0067031Y0060602D02*
X0067031Y0059101D01*
X0068032Y0059101D01*
X0068504Y0059101D02*
X0068504Y0060602D01*
X0069505Y0060602D01*
X0069977Y0060602D02*
X0069977Y0059101D01*
X0069977Y0059852D02*
X0070478Y0059852D01*
X0069977Y0060602D02*
X0070978Y0060602D01*
X0070906Y0060656D02*
X0072407Y0060656D01*
X0072451Y0060602D02*
X0071451Y0060602D01*
X0071451Y0059101D01*
X0072451Y0059101D01*
X0072407Y0059419D02*
X0072407Y0059669D01*
X0072157Y0059669D01*
X0072157Y0059419D01*
X0072407Y0059419D01*
X0072924Y0059351D02*
X0073174Y0059101D01*
X0073674Y0059101D01*
X0073925Y0059351D01*
X0073925Y0060352D02*
X0073674Y0060602D01*
X0073174Y0060602D01*
X0072924Y0060352D01*
X0072924Y0059351D01*
X0072407Y0058696D02*
X0072407Y0058196D01*
X0072157Y0057946D01*
X0071156Y0058947D01*
X0072157Y0058947D01*
X0072407Y0058696D01*
X0072157Y0057946D02*
X0071156Y0057946D01*
X0070906Y0058196D01*
X0070906Y0058696D01*
X0071156Y0058947D01*
X0071451Y0059852D02*
X0071951Y0059852D01*
X0072407Y0060156D02*
X0072407Y0061156D01*
X0072157Y0061629D02*
X0071406Y0061629D01*
X0072157Y0061629D02*
X0072407Y0061879D01*
X0072407Y0062630D01*
X0071406Y0062630D01*
X0071656Y0063102D02*
X0071656Y0063602D01*
X0070906Y0063102D02*
X0072407Y0063102D01*
X0070906Y0063102D02*
X0070906Y0064103D01*
X0070906Y0060656D02*
X0071406Y0060156D01*
X0069004Y0059852D02*
X0068504Y0059852D01*
X0068032Y0060602D02*
X0067031Y0060602D01*
X0065085Y0059101D02*
X0064084Y0059101D01*
X0063581Y0053462D02*
X0064582Y0052462D01*
X0064332Y0052712D02*
X0065082Y0053462D01*
X0065082Y0052462D02*
X0063581Y0052462D01*
X0063831Y0051989D02*
X0064832Y0050988D01*
X0065082Y0051238D01*
X0065082Y0051739D01*
X0064832Y0051989D01*
X0063831Y0051989D01*
X0063581Y0051739D01*
X0063581Y0051238D01*
X0063831Y0050988D01*
X0064832Y0050988D01*
X0065082Y0050516D02*
X0065082Y0049515D01*
X0065082Y0050015D02*
X0063581Y0050015D01*
X0064081Y0049515D01*
X0071081Y0050488D02*
X0071081Y0051239D01*
X0071331Y0051489D01*
X0071832Y0051489D01*
X0072082Y0051239D01*
X0072082Y0050488D01*
X0072582Y0050488D02*
X0071081Y0050488D01*
X0072082Y0050989D02*
X0072582Y0051489D01*
X0072332Y0051962D02*
X0072582Y0052212D01*
X0072582Y0052712D01*
X0072332Y0052962D01*
X0071832Y0052962D01*
X0071581Y0052712D01*
X0071581Y0052462D01*
X0071832Y0051962D01*
X0071081Y0051962D01*
X0071081Y0052962D01*
X0074153Y0055367D02*
X0074153Y0056868D01*
X0074904Y0056868D01*
X0075154Y0056618D01*
X0075154Y0056117D01*
X0074904Y0055867D01*
X0074153Y0055867D01*
X0074654Y0055867D02*
X0075154Y0055367D01*
X0075626Y0055367D02*
X0075626Y0055617D01*
X0076627Y0056618D01*
X0076627Y0056868D01*
X0075626Y0056868D01*
X0076121Y0059101D02*
X0075870Y0059351D01*
X0076121Y0059101D02*
X0076621Y0059101D01*
X0076871Y0059351D01*
X0076871Y0059602D01*
X0076621Y0059852D01*
X0076121Y0059852D01*
X0075870Y0060102D01*
X0075870Y0060352D01*
X0076121Y0060602D01*
X0076621Y0060602D01*
X0076871Y0060352D01*
X0077344Y0060602D02*
X0077844Y0060102D01*
X0078344Y0060602D01*
X0078344Y0059101D01*
X0078817Y0059101D02*
X0079567Y0059101D01*
X0079818Y0059351D01*
X0079818Y0060352D01*
X0079567Y0060602D01*
X0078817Y0060602D01*
X0078817Y0059101D01*
X0077344Y0059101D02*
X0077344Y0060602D01*
X0075398Y0060602D02*
X0074397Y0060602D01*
X0074897Y0060602D02*
X0074897Y0059101D01*
X0077844Y0053602D02*
X0077844Y0052351D01*
X0078094Y0052101D01*
X0078594Y0052101D01*
X0078844Y0052351D01*
X0078844Y0053602D01*
X0079317Y0053352D02*
X0079567Y0053602D01*
X0080068Y0053602D01*
X0080318Y0053352D01*
X0080318Y0053102D01*
X0079317Y0052101D01*
X0080318Y0052101D01*
X0077600Y0049368D02*
X0076600Y0048367D01*
X0076850Y0048617D02*
X0077600Y0047867D01*
X0076600Y0047867D02*
X0076600Y0049368D01*
X0076127Y0049118D02*
X0075126Y0048117D01*
X0075377Y0047867D01*
X0075877Y0047867D01*
X0076127Y0048117D01*
X0076127Y0049118D01*
X0075877Y0049368D01*
X0075377Y0049368D01*
X0075126Y0049118D01*
X0075126Y0048117D01*
X0074654Y0047867D02*
X0073653Y0047867D01*
X0074154Y0047867D02*
X0074154Y0049368D01*
X0073653Y0048868D01*
X0075824Y0045416D02*
X0075574Y0045166D01*
X0075574Y0044415D01*
X0077075Y0044415D01*
X0077075Y0045166D01*
X0076825Y0045416D01*
X0075824Y0045416D01*
X0075574Y0043943D02*
X0077075Y0043943D01*
X0077075Y0042942D02*
X0075574Y0042942D01*
X0076074Y0043443D01*
X0075574Y0043943D01*
X0075824Y0042470D02*
X0075574Y0042220D01*
X0075574Y0041719D01*
X0075824Y0041469D01*
X0076074Y0041469D01*
X0076324Y0041719D01*
X0076324Y0042220D01*
X0076575Y0042470D01*
X0076825Y0042470D01*
X0077075Y0042220D01*
X0077075Y0041719D01*
X0076825Y0041469D01*
X0077075Y0040496D02*
X0075574Y0040496D01*
X0075574Y0039996D02*
X0075574Y0040996D01*
X0075824Y0039523D02*
X0075574Y0039273D01*
X0075574Y0038773D01*
X0075824Y0038522D01*
X0076825Y0038522D01*
X0077075Y0038773D01*
X0077075Y0039273D01*
X0076825Y0039523D01*
X0077075Y0038050D02*
X0077075Y0037049D01*
X0075574Y0037049D01*
X0075574Y0038050D01*
X0076324Y0037550D02*
X0076324Y0037049D01*
X0075574Y0036577D02*
X0075574Y0035576D01*
X0077075Y0035576D01*
X0076324Y0035576D02*
X0076324Y0036076D01*
X0075574Y0035103D02*
X0075574Y0034103D01*
X0077075Y0034103D01*
X0077075Y0033630D02*
X0077075Y0032629D01*
X0075574Y0032629D01*
X0075574Y0033630D01*
X0076324Y0034103D02*
X0076324Y0034603D01*
X0076324Y0033130D02*
X0076324Y0032629D01*
X0076324Y0032157D02*
X0076324Y0031156D01*
X0077075Y0030684D02*
X0077075Y0029683D01*
X0075574Y0029683D01*
X0075574Y0028210D02*
X0077075Y0028210D01*
X0077075Y0029210D01*
X0077075Y0027737D02*
X0076074Y0027737D01*
X0075574Y0027237D01*
X0076074Y0026736D01*
X0077075Y0026736D01*
X0077075Y0026264D02*
X0075574Y0026264D01*
X0076324Y0026264D02*
X0076324Y0025263D01*
X0075574Y0025263D02*
X0077075Y0025263D01*
X0076324Y0026736D02*
X0076324Y0027737D01*
X0071188Y0030081D02*
X0069687Y0030081D01*
X0069687Y0030831D01*
X0069937Y0031082D01*
X0070438Y0031082D01*
X0070688Y0030831D01*
X0070688Y0030081D01*
X0070688Y0030581D02*
X0071188Y0031082D01*
X0070938Y0031554D02*
X0071188Y0031804D01*
X0071188Y0032305D01*
X0070938Y0032555D01*
X0069937Y0032555D01*
X0069687Y0032305D01*
X0069687Y0031804D01*
X0069937Y0031554D01*
X0070188Y0031554D01*
X0070438Y0031804D01*
X0070438Y0032555D01*
X0069324Y0027237D02*
X0069324Y0026236D01*
X0068574Y0026987D01*
X0070075Y0026987D01*
X0069825Y0025764D02*
X0068574Y0025764D01*
X0068574Y0024763D02*
X0069825Y0024763D01*
X0070075Y0025013D01*
X0070075Y0025514D01*
X0069825Y0025764D01*
X0063938Y0029358D02*
X0063938Y0030358D01*
X0063938Y0029858D02*
X0062437Y0029858D01*
X0062938Y0029358D01*
X0062687Y0030831D02*
X0062437Y0031081D01*
X0062437Y0031581D01*
X0062687Y0031832D01*
X0063688Y0030831D01*
X0063938Y0031081D01*
X0063938Y0031581D01*
X0063688Y0031832D01*
X0062687Y0031832D01*
X0062437Y0032304D02*
X0063938Y0032304D01*
X0063438Y0032304D02*
X0062437Y0033305D01*
X0063188Y0032554D02*
X0063938Y0033305D01*
X0063688Y0030831D02*
X0062687Y0030831D01*
X0087153Y0036564D02*
X0087507Y0036210D01*
X0087861Y0036210D01*
X0088038Y0036387D01*
X0088038Y0036741D01*
X0087684Y0037094D01*
X0087684Y0037448D01*
X0087861Y0037625D01*
X0088215Y0037625D01*
X0088568Y0037271D01*
X0088568Y0036918D01*
X0088726Y0036407D02*
X0089433Y0036407D01*
X0088372Y0035345D01*
X0088018Y0035699D02*
X0088726Y0034991D01*
X0087153Y0036564D02*
X0087153Y0036918D01*
X0097072Y0047858D02*
X0097425Y0047858D01*
X0098133Y0048566D01*
X0098133Y0048920D01*
X0097602Y0049450D01*
X0096541Y0048389D01*
X0097072Y0047858D01*
X0098113Y0047878D02*
X0098821Y0047170D01*
X0099509Y0047190D02*
X0099863Y0047190D01*
X0100217Y0046836D01*
X0100217Y0046482D01*
X0100040Y0046305D01*
X0098624Y0046305D01*
X0099332Y0045598D01*
X0096207Y0048723D02*
X0097268Y0049784D01*
X0096561Y0049784D01*
X0096561Y0050492D01*
X0095499Y0049431D01*
X0095342Y0049942D02*
X0094988Y0049942D01*
X0094634Y0050295D01*
X0094634Y0050649D01*
X0094123Y0050806D02*
X0093416Y0051514D01*
X0094831Y0051514D01*
X0095008Y0051691D01*
X0095008Y0052045D01*
X0094654Y0052399D01*
X0094300Y0052399D01*
X0093612Y0052379D02*
X0092905Y0053087D01*
X0092924Y0053775D02*
X0093101Y0053951D01*
X0092924Y0053775D02*
X0092217Y0053775D01*
X0091686Y0053244D01*
X0092217Y0053775D02*
X0092217Y0054482D01*
X0092394Y0054659D01*
X0091883Y0054816D02*
X0091529Y0054462D01*
X0091175Y0054462D01*
X0090644Y0054993D01*
X0090290Y0054639D02*
X0091352Y0055701D01*
X0091883Y0055170D01*
X0091883Y0054816D01*
X0090998Y0054639D02*
X0090998Y0053932D01*
X0089956Y0054973D02*
X0090664Y0055681D01*
X0090664Y0056389D01*
X0089956Y0056389D01*
X0089249Y0055681D01*
X0089779Y0056212D02*
X0090487Y0055504D01*
X0089976Y0057077D02*
X0089268Y0057784D01*
X0088934Y0058119D02*
X0087873Y0057057D01*
X0088227Y0058826D01*
X0087165Y0057765D01*
X0086831Y0058099D02*
X0086123Y0058806D01*
X0087185Y0059868D01*
X0087893Y0059160D01*
X0087008Y0058983D02*
X0086654Y0059337D01*
X0086851Y0060202D02*
X0085789Y0059140D01*
X0085082Y0059848D02*
X0086143Y0060910D01*
X0086143Y0060202D01*
X0086851Y0060202D01*
X0085632Y0061067D02*
X0085632Y0061421D01*
X0085278Y0061775D01*
X0084924Y0061775D01*
X0084217Y0061067D01*
X0084217Y0060713D01*
X0084571Y0060359D01*
X0084924Y0060359D01*
X0085632Y0061067D01*
X0084767Y0062286D02*
X0083706Y0061224D01*
X0082998Y0061932D02*
X0084060Y0062993D01*
X0084060Y0062286D01*
X0084767Y0062286D01*
X0083195Y0062797D02*
X0082487Y0063504D01*
X0082153Y0063838D02*
X0081445Y0064546D01*
X0080758Y0064526D02*
X0080404Y0064526D01*
X0080050Y0064880D01*
X0080050Y0065234D01*
X0080758Y0065942D01*
X0081111Y0065942D01*
X0081465Y0065588D01*
X0081465Y0065234D01*
X0081976Y0065077D02*
X0080915Y0064015D01*
X0081622Y0063307D02*
X0082684Y0064369D01*
X0080600Y0066453D02*
X0079893Y0067160D01*
X0079552Y0067501D02*
X0079198Y0067855D01*
X0079375Y0067678D02*
X0078314Y0066616D01*
X0078490Y0066439D02*
X0078137Y0066793D01*
X0077803Y0067127D02*
X0078864Y0068189D01*
X0078156Y0068897D02*
X0077095Y0067835D01*
X0077803Y0067835D01*
X0077803Y0067127D01*
X0076938Y0068346D02*
X0076584Y0068346D01*
X0076230Y0068700D01*
X0076230Y0069054D01*
X0076761Y0069231D02*
X0077115Y0068877D01*
X0077115Y0068523D01*
X0076938Y0068346D01*
X0076761Y0069231D02*
X0076761Y0069584D01*
X0076938Y0069761D01*
X0077292Y0069761D01*
X0077645Y0069408D01*
X0077645Y0069054D01*
X0080247Y0066806D02*
X0079185Y0065745D01*
X0088561Y0056369D02*
X0089622Y0057431D01*
X0095342Y0051357D02*
X0095165Y0051180D01*
X0095165Y0050826D01*
X0095519Y0050472D01*
X0095519Y0050119D01*
X0095342Y0049942D01*
X0096050Y0050649D02*
X0096050Y0051003D01*
X0095696Y0051357D01*
X0095342Y0051357D01*
X0108437Y0051015D02*
X0108437Y0052016D01*
X0108437Y0052489D02*
X0109938Y0052489D01*
X0109938Y0053489D01*
X0109688Y0053962D02*
X0109938Y0054212D01*
X0109938Y0054712D01*
X0109688Y0054963D01*
X0108687Y0054963D02*
X0108437Y0054712D01*
X0108437Y0054212D01*
X0108687Y0053962D01*
X0109688Y0053962D01*
X0109187Y0052989D02*
X0109187Y0052489D01*
X0108437Y0052489D02*
X0108437Y0053489D01*
X0109187Y0051516D02*
X0109187Y0051015D01*
X0108437Y0051015D02*
X0109938Y0051015D01*
X0109187Y0050042D02*
X0109187Y0049542D01*
X0108437Y0049542D02*
X0109938Y0049542D01*
X0109938Y0049070D02*
X0109938Y0048069D01*
X0108437Y0048069D01*
X0108437Y0049070D01*
X0108437Y0049542D02*
X0108437Y0050543D01*
X0109187Y0048569D02*
X0109187Y0048069D01*
X0109187Y0047596D02*
X0109187Y0046595D01*
X0109938Y0046123D02*
X0109938Y0045122D01*
X0108437Y0045122D01*
X0108437Y0043649D02*
X0109938Y0043649D01*
X0109938Y0044650D01*
X0109938Y0043177D02*
X0108937Y0043177D01*
X0108437Y0042676D01*
X0108937Y0042176D01*
X0109938Y0042176D01*
X0109938Y0041703D02*
X0108437Y0041703D01*
X0109187Y0041703D02*
X0109187Y0040702D01*
X0108437Y0040702D02*
X0109938Y0040702D01*
X0109842Y0039197D02*
X0110093Y0038947D01*
X0109092Y0037946D01*
X0109342Y0037696D01*
X0109842Y0037696D01*
X0110093Y0037946D01*
X0110093Y0038947D01*
X0109842Y0039197D02*
X0109342Y0039197D01*
X0109092Y0038947D01*
X0109092Y0037946D01*
X0108619Y0037696D02*
X0107618Y0037696D01*
X0108119Y0037696D02*
X0108119Y0039197D01*
X0107618Y0038696D01*
X0110565Y0038196D02*
X0111566Y0039197D01*
X0110565Y0039197D02*
X0110565Y0037696D01*
X0110815Y0038446D02*
X0111566Y0037696D01*
X0109187Y0042176D02*
X0109187Y0043177D01*
X0106573Y0034739D02*
X0106573Y0033238D01*
X0107073Y0033238D02*
X0106072Y0033238D01*
X0105600Y0033488D02*
X0105600Y0034739D01*
X0106072Y0034239D02*
X0106573Y0034739D01*
X0105600Y0033488D02*
X0105350Y0033238D01*
X0104849Y0033238D01*
X0104599Y0033488D01*
X0104599Y0034739D01*
X0108592Y0031697D02*
X0109342Y0031697D01*
X0109593Y0031447D01*
X0109593Y0030946D01*
X0109342Y0030696D01*
X0108592Y0030696D01*
X0109092Y0030696D02*
X0109593Y0030196D01*
X0110065Y0030446D02*
X0110315Y0030196D01*
X0110816Y0030196D01*
X0111066Y0030446D01*
X0111066Y0030696D01*
X0110816Y0030946D01*
X0110065Y0030946D01*
X0110065Y0030446D01*
X0110065Y0030946D02*
X0110565Y0031447D01*
X0111066Y0031697D01*
X0108592Y0031697D02*
X0108592Y0030196D01*
X0108046Y0027739D02*
X0108046Y0026238D01*
X0109046Y0026238D01*
X0109519Y0026238D02*
X0110520Y0026238D01*
X0110992Y0026989D02*
X0111993Y0026989D01*
X0112465Y0026989D02*
X0112966Y0026989D01*
X0113466Y0027739D02*
X0112465Y0027739D01*
X0112465Y0026238D01*
X0113466Y0026238D01*
X0113813Y0026515D02*
X0114314Y0026014D01*
X0113939Y0026238D02*
X0113939Y0027739D01*
X0114940Y0027739D01*
X0115064Y0027487D02*
X0115314Y0027738D01*
X0115314Y0028488D01*
X0114314Y0028488D01*
X0114564Y0028961D02*
X0114564Y0029461D01*
X0115314Y0028961D02*
X0113813Y0028961D01*
X0113813Y0029962D01*
X0115412Y0027739D02*
X0116413Y0027739D01*
X0116885Y0027739D02*
X0116885Y0026238D01*
X0117886Y0026238D01*
X0118358Y0026488D02*
X0118609Y0026238D01*
X0119109Y0026238D01*
X0119359Y0026488D01*
X0118358Y0026488D02*
X0118358Y0027489D01*
X0118609Y0027739D01*
X0119109Y0027739D01*
X0119359Y0027489D01*
X0119832Y0027739D02*
X0120833Y0027739D01*
X0121313Y0027738D02*
X0121313Y0027238D01*
X0121563Y0026987D01*
X0122564Y0026987D01*
X0122814Y0027238D01*
X0122814Y0027738D01*
X0122564Y0027988D01*
X0122778Y0027739D02*
X0123279Y0027239D01*
X0123779Y0027739D01*
X0123779Y0026238D01*
X0124251Y0026238D02*
X0125002Y0026238D01*
X0125252Y0026488D01*
X0125252Y0027489D01*
X0125002Y0027739D01*
X0124251Y0027739D01*
X0124251Y0026238D01*
X0122778Y0026238D02*
X0122778Y0027739D01*
X0122306Y0027489D02*
X0122056Y0027739D01*
X0121555Y0027739D01*
X0121305Y0027489D01*
X0121305Y0027239D01*
X0121555Y0026989D01*
X0122056Y0026989D01*
X0122306Y0026739D01*
X0122306Y0026488D01*
X0122056Y0026238D01*
X0121555Y0026238D01*
X0121305Y0026488D01*
X0120332Y0026238D02*
X0120332Y0027739D01*
X0121313Y0027738D02*
X0121563Y0027988D01*
X0121814Y0028461D02*
X0121313Y0028961D01*
X0122814Y0028961D01*
X0122814Y0028461D02*
X0122814Y0029462D01*
X0117886Y0027739D02*
X0116885Y0027739D01*
X0116885Y0026989D02*
X0117386Y0026989D01*
X0115912Y0026989D02*
X0115412Y0026989D01*
X0115314Y0027015D02*
X0115314Y0026014D01*
X0115412Y0026238D02*
X0115412Y0027739D01*
X0115064Y0027487D02*
X0114314Y0027487D01*
X0114439Y0026989D02*
X0113939Y0026989D01*
X0113813Y0026515D02*
X0115314Y0026515D01*
X0115314Y0025528D02*
X0115314Y0025278D01*
X0115064Y0025278D01*
X0115064Y0025528D01*
X0115314Y0025528D01*
X0115064Y0024805D02*
X0115314Y0024555D01*
X0115314Y0024055D01*
X0115064Y0023804D01*
X0114063Y0024805D01*
X0115064Y0024805D01*
X0114063Y0024805D02*
X0113813Y0024555D01*
X0113813Y0024055D01*
X0114063Y0023804D01*
X0115064Y0023804D01*
X0109519Y0026238D02*
X0109519Y0027739D01*
X0107573Y0027239D02*
X0107573Y0026238D01*
X0107573Y0026989D02*
X0106572Y0026989D01*
X0106572Y0027239D02*
X0107073Y0027739D01*
X0107573Y0027239D01*
X0106572Y0027239D02*
X0106572Y0026238D01*
X0106100Y0026238D02*
X0106100Y0027739D01*
X0106100Y0026989D02*
X0105099Y0026989D01*
X0105099Y0027739D02*
X0105099Y0026238D01*
X0112099Y0055393D02*
X0112099Y0056144D01*
X0112349Y0056394D01*
X0112850Y0056394D01*
X0113100Y0056144D01*
X0113100Y0055393D01*
X0113600Y0055393D02*
X0112099Y0055393D01*
X0113100Y0055893D02*
X0113600Y0056394D01*
X0113350Y0056866D02*
X0113100Y0056866D01*
X0112850Y0057116D01*
X0112850Y0057617D01*
X0113100Y0057867D01*
X0113350Y0057867D01*
X0113600Y0057617D01*
X0113600Y0057116D01*
X0113350Y0056866D01*
X0112850Y0057116D02*
X0112599Y0056866D01*
X0112349Y0056866D01*
X0112099Y0057116D01*
X0112099Y0057617D01*
X0112349Y0057867D01*
X0112599Y0057867D01*
X0112850Y0057617D01*
X0115437Y0058882D02*
X0116688Y0058882D01*
X0116938Y0059132D01*
X0116938Y0059632D01*
X0116688Y0059882D01*
X0115437Y0059882D01*
X0115687Y0060355D02*
X0115437Y0060605D01*
X0115437Y0061105D01*
X0115687Y0061356D01*
X0115937Y0061356D01*
X0116187Y0061105D01*
X0116438Y0061356D01*
X0116688Y0061356D01*
X0116938Y0061105D01*
X0116938Y0060605D01*
X0116688Y0060355D01*
X0116187Y0060855D02*
X0116187Y0061105D01*
X0119599Y0058840D02*
X0120600Y0057840D01*
X0120350Y0058090D02*
X0121100Y0058840D01*
X0121100Y0057840D02*
X0119599Y0057840D01*
X0119849Y0057367D02*
X0120850Y0056366D01*
X0121100Y0056616D01*
X0121100Y0057117D01*
X0120850Y0057367D01*
X0119849Y0057367D01*
X0119599Y0057117D01*
X0119599Y0056616D01*
X0119849Y0056366D01*
X0120850Y0056366D01*
X0121100Y0055894D02*
X0121100Y0054893D01*
X0121100Y0055393D02*
X0119599Y0055393D01*
X0120099Y0054893D01*
X0109938Y0055935D02*
X0108437Y0055935D01*
X0108437Y0055435D02*
X0108437Y0056436D01*
X0108687Y0056908D02*
X0108437Y0057158D01*
X0108437Y0057659D01*
X0108687Y0057909D01*
X0108437Y0058382D02*
X0108937Y0058882D01*
X0108437Y0059382D01*
X0109938Y0059382D01*
X0109938Y0059855D02*
X0108437Y0059855D01*
X0108437Y0060605D01*
X0108687Y0060856D01*
X0109688Y0060856D01*
X0109938Y0060605D01*
X0109938Y0059855D01*
X0109938Y0058382D02*
X0108437Y0058382D01*
X0109187Y0057659D02*
X0109438Y0057909D01*
X0109688Y0057909D01*
X0109938Y0057659D01*
X0109938Y0057158D01*
X0109688Y0056908D01*
X0109187Y0057158D02*
X0109187Y0057659D01*
X0109187Y0057158D02*
X0108937Y0056908D01*
X0108687Y0056908D01*
D12*
X0118144Y0026384D02*
X0118385Y0026384D01*
X0068077Y0061896D02*
X0067837Y0061896D01*
D13*
X0068032Y0049885D03*
X0066888Y0029477D03*
X0116650Y0058843D03*
D14*
X0107988Y0034746D03*
X0077603Y0052317D03*
D15*
X0094806Y0062132D02*
X0095556Y0061381D01*
X0096307Y0061381D01*
X0097058Y0062132D01*
X0097058Y0065885D01*
X0097808Y0065885D02*
X0096307Y0065885D01*
X0099410Y0065885D02*
X0101662Y0065885D01*
X0102412Y0065134D01*
X0102412Y0063633D01*
X0101662Y0062883D01*
X0099410Y0062883D01*
X0099410Y0061381D02*
X0099410Y0065885D01*
X0104014Y0064384D02*
X0105515Y0065885D01*
X0105515Y0061381D01*
X0104014Y0061381D02*
X0107016Y0061381D01*
X0106662Y0007420D02*
X0104410Y0007420D01*
X0104410Y0002917D01*
X0104410Y0004418D02*
X0106662Y0004418D01*
X0107412Y0005169D01*
X0107412Y0006670D01*
X0106662Y0007420D01*
X0109014Y0006670D02*
X0109764Y0007420D01*
X0111266Y0007420D01*
X0112016Y0006670D01*
X0112016Y0005919D01*
X0111266Y0005169D01*
X0112016Y0004418D01*
X0112016Y0003667D01*
X0111266Y0002917D01*
X0109764Y0002917D01*
X0109014Y0003667D01*
X0110515Y0005169D02*
X0111266Y0005169D01*
X0102808Y0007420D02*
X0101307Y0007420D01*
X0102058Y0007420D02*
X0102058Y0003667D01*
X0101307Y0002917D01*
X0100556Y0002917D01*
X0099806Y0003667D01*
M02*
