<?xml version="1.0" encoding="UTF-8" standalone="no"?>
<svg
   xmlns:dc="http://purl.org/dc/elements/1.1/"
   xmlns:cc="http://creativecommons.org/ns#"
   xmlns:rdf="http://www.w3.org/1999/02/22-rdf-syntax-ns#"
   xmlns:svg="http://www.w3.org/2000/svg"
   xmlns="http://www.w3.org/2000/svg"
   xmlns:xlink="http://www.w3.org/1999/xlink"
   xmlns:sodipodi="http://sodipodi.sourceforge.net/DTD/sodipodi-0.dtd"
   xmlns:inkscape="http://www.inkscape.org/namespaces/inkscape"
   width="216"
   height="391.99985"
   version="1.1"
   id="svg138"
   sodipodi:docname="car.svg"
   inkscape:version="0.92.2 (5c3e80d, 2017-08-06)">
  <metadata
     id="metadata142">
    <rdf:RDF>
      <cc:Work
         rdf:about="">
        <dc:format>image/svg+xml</dc:format>
        <dc:type
           rdf:resource="http://purl.org/dc/dcmitype/StillImage" />
        <dc:title>Maroon Car - Top View</dc:title>
      </cc:Work>
    </rdf:RDF>
  </metadata>
  <sodipodi:namedview
     pagecolor="#ffffff"
     bordercolor="#666666"
     borderopacity="1"
     objecttolerance="10"
     gridtolerance="10"
     guidetolerance="10"
     inkscape:pageopacity="0"
     inkscape:pageshadow="2"
     inkscape:window-width="1846"
     inkscape:window-height="1057"
     id="namedview140"
     showgrid="false"
     inkscape:zoom="0.88072928"
     inkscape:cx="674.2463"
     inkscape:cy="178.04851"
     inkscape:window-x="-8"
     inkscape:window-y="-8"
     inkscape:window-maximized="1"
     inkscape:current-layer="g136" />
  <title
     id="title77">Maroon Car - Top View</title>
  <defs
     id="defs100">
    <linearGradient
       id="linearGradient3759">
      <stop
         id="stop3761"
         offset="0"
         stop-color="#1a1a1a" />
      <stop
         id="stop3763"
         offset="1"
         stop-opacity="0"
         stop-color="#f30000" />
    </linearGradient>
    <linearGradient
       x1="889.6181"
       y1="328.01511"
       x2="864.66321"
       y2="320.92896"
       id="linearGradient4149"
       xlink:href="#linearGradient3759"
       gradientTransform="matrix(0.90804745,0,0,0.99538679,-162.43846,-40.221068)"
       gradientUnits="userSpaceOnUse" />
    <linearGradient
       x1="875.36993"
       y1="333.27185"
       x2="810.15125"
       y2="329.95105"
       id="linearGradient4153"
       xlink:href="#linearGradient3759"
       gradientTransform="matrix(0.90804736,0,0,0.99538689,-162.43846,-40.221068)"
       gradientUnits="userSpaceOnUse" />
    <linearGradient
       x1="919.64374"
       y1="322.75696"
       x2="850.60913"
       y2="317.56107"
       id="linearGradient4155"
       xlink:href="#linearGradient3759"
       gradientTransform="matrix(0.90804745,0,0,0.99538679,-162.43846,-40.221068)"
       gradientUnits="userSpaceOnUse" />
    <linearGradient
       x1="889.6181"
       y1="114.34772"
       x2="864.66321"
       y2="121.43389"
       id="linearGradient4185"
       xlink:href="#linearGradient3759"
       gradientTransform="matrix(0.90804745,0,0,0.99538679,-162.43846,-40.221068)"
       gradientUnits="userSpaceOnUse" />
    <linearGradient
       x1="921.60571"
       y1="126.79039"
       x2="908.93622"
       y2="126.73051"
       id="linearGradient4187"
       xlink:href="#linearGradient3759"
       gradientTransform="matrix(0.90804745,0,0,0.99538679,-162.43846,-40.221068)"
       gradientUnits="userSpaceOnUse" />
    <linearGradient
       x1="919.64374"
       y1="119.6059"
       x2="850.60913"
       y2="124.80183"
       id="linearGradient4189"
       xlink:href="#linearGradient3759"
       gradientTransform="matrix(0.90804745,0,0,0.99538679,-162.43846,-40.221068)"
       gradientUnits="userSpaceOnUse" />
    <linearGradient
       x1="725.50665"
       y1="146.04549"
       x2="714.22211"
       y2="154.43002"
       id="linearGradient4191"
       xlink:href="#linearGradient3759"
       gradientTransform="matrix(1.165956,0,0,0.77520802,-162.43846,-40.221068)"
       gradientUnits="userSpaceOnUse" />
    <linearGradient
       x1="711.66705"
       y1="134.52667"
       x2="674.18188"
       y2="195.35353"
       id="linearGradient4193"
       xlink:href="#linearGradient3759"
       gradientTransform="matrix(1.165956,0,0,0.77520802,-162.43846,-40.221068)"
       gradientUnits="userSpaceOnUse" />
    <linearGradient
       x1="897.92731"
       y1="120.00386"
       x2="818.42194"
       y2="118.96464"
       id="linearGradient4195"
       xlink:href="#linearGradient3759"
       gradientTransform="matrix(0.90804737,0,0,0.99538689,-162.43846,-40.221068)"
       gradientUnits="userSpaceOnUse" />
    <linearGradient
       x1="875.36993"
       y1="109.09092"
       x2="810.15125"
       y2="112.41172"
       id="linearGradient4197"
       xlink:href="#linearGradient3759"
       gradientTransform="matrix(0.90804736,0,0,0.99538689,-162.43846,-40.221068)"
       gradientUnits="userSpaceOnUse" />
    <linearGradient
       x1="223.76582"
       y1="88.803337"
       x2="197.91623"
       y2="96.967201"
       id="linearGradient4199"
       xlink:href="#linearGradient3759"
       gradientTransform="matrix(0.87387875,0,0,1.0343065,-162.43846,-40.221068)"
       gradientUnits="userSpaceOnUse" />
    <linearGradient
       x1="239.45888"
       y1="89.060387"
       x2="215.44844"
       y2="92.336143"
       id="linearGradient4201"
       xlink:href="#linearGradient3759"
       gradientTransform="matrix(0.89544986,0,0,1.0093903,-162.43846,-40.221068)"
       gradientUnits="userSpaceOnUse" />
    <linearGradient
       x1="921.60571"
       y1="315.57254"
       x2="908.93622"
       y2="315.63242"
       id="linearGradient4203"
       xlink:href="#linearGradient3759"
       gradientTransform="matrix(0.90804745,0,0,0.99538679,-162.43846,-40.221068)"
       gradientUnits="userSpaceOnUse" />
    <linearGradient
       x1="725.50659"
       y1="421.95981"
       x2="714.22205"
       y2="413.5752"
       id="linearGradient4205"
       xlink:href="#linearGradient3759"
       gradientTransform="matrix(1.1659561,0,0,0.77520795,-162.43846,-40.221068)"
       gradientUnits="userSpaceOnUse" />
    <linearGradient
       x1="711.66699"
       y1="433.47861"
       x2="674.18182"
       y2="372.65176"
       id="linearGradient4207"
       xlink:href="#linearGradient3759"
       gradientTransform="matrix(1.1659561,0,0,0.77520795,-162.43846,-40.221068)"
       gradientUnits="userSpaceOnUse" />
    <linearGradient
       x1="897.92731"
       y1="322.35898"
       x2="818.42194"
       y2="323.39822"
       id="linearGradient4209"
       xlink:href="#linearGradient3759"
       gradientTransform="matrix(0.90804737,0,0,0.99538689,-162.43846,-40.221068)"
       gradientUnits="userSpaceOnUse" />
    <linearGradient
       x1="223.76581"
       y1="336.91391"
       x2="197.91621"
       y2="328.75003"
       id="linearGradient4211"
       xlink:href="#linearGradient3759"
       gradientTransform="matrix(0.87387884,0,0,1.0343064,-162.43846,-40.221068)"
       gradientUnits="userSpaceOnUse" />
    <linearGradient
       x1="239.45888"
       y1="347.16547"
       x2="215.44843"
       y2="343.88971"
       id="linearGradient4213"
       xlink:href="#linearGradient3759"
       gradientTransform="matrix(0.89544988,0,0,1.0093903,-162.43846,-40.221068)"
       gradientUnits="userSpaceOnUse" />
  </defs>
  <g
     id="g136"
     transform="matrix(0,-0.40589871,0.44980424,0,26.920301,320.02356)">
    <title
       id="title102">Layer 1</title>
    <path
       d="m 382.37767,-33.745657 c -1.47405,0.0083 -4.61293,0.282047 -6.32052,0.867231 l -3.41978,1.38757 8.45786,33.2438967 -121.95234,0.260169 c -2.3805,0.0046 -4.77567,-0.01298 -7.17542,-0.02891 -4.79953,-0.03173 -9.639,-0.09671 -14.50359,-0.202353 -7.12561,-0.154696 -14.33287,-0.381896 -21.55695,-0.664878 -0.38681,-0.01512 -0.7732,-0.04223 -1.16025,-0.05781 -14.5904,-0.58288997 -29.31991,-1.37989197 -43.99932,-2.254801 -19.86065,-1.186567 -39.59196,-2.504407 -58.74723,-3.584557 -14.195251,-0.800434 -28.073987,-1.461139 -41.403935,-1.850093 -9.154597,-0.267052 -18.040913,-0.422321 -26.625561,-0.375801 -4.216946,0.02287 -8.371582,0.08634 -12.427298,0.202354 -4.055676,0.116084 -8.188172,0.328716 -12.3662,0.607062 -2.089029,0.139238 -4.179777,0.286996 -6.28999,0.462524 -6.3207279,0.525815 -12.74618213,1.222366 -19.1447463,2.02354 -0.00987,9.25e-4 -0.020617,-8.98e-4 -0.030485,0 -4.2723573,0.53525 -8.5187823,1.133672 -12.7631643,1.76337 -4.244383,0.629707 -8.474725,1.29305803 -12.641018,1.99463203 -4.156288,0.699946 -8.276394,1.44804097 -12.305152,2.19698597 -0.0098,0.0018 -0.02071,-0.0019 -0.03048,0 -2.019039,0.375467 -3.976512,0.743923 -5.954113,1.127401 -5.922563,1.148574 -11.660367,2.3274726 -17.098974,3.4978326 -0.0099,0.00185 -0.02062,-0.00185 -0.03049,0 -3.631333,0.7815813 -7.120334,1.5496106 -10.473118,2.3126169 -6.706613,1.5248838 -12.814922,2.9921748 -18.106594,4.3072488 -7.937531,1.972672 -14.053001,3.63289 -17.679111,4.625234 -2.41698,0.662167 -3.72515,1.040678 -3.72515,1.040678 l -13.37383,3.468925 c -0.88174,0.230134 -1.7374,0.641003 -2.56485,1.214125 -0.28113,0.194732 -0.54946,0.403302 -0.82443,0.63597 -1.07439,0.906194 -2.10172,2.100494 -3.0839,3.555649 -0.005,0.0065 0.005,0.02253 0,0.02891 -0.48892,0.725912 -0.99905,1.517493 -1.46563,2.370433 -0.004,0.0074 0.004,0.02146 0,0.02885 -0.46665,0.854475 -0.92937,1.770715 -1.37402,2.746233 -0.004,0.0083 0.004,0.0205 0,0.02885 -3.58304,7.871648 -6.46838,19.547487 -8.7327,33.504038 -9.8e-4,0.0093 9.7e-4,0.01961 0,0.02886 -0.0351,0.216636 -0.0568,0.447167 -0.0916,0.664877 -0.49306,3.081775 -0.96931,6.288672 -1.40456,9.568453 -0.0298,0.22449 -0.062,0.439601 -0.0915,0.664877 -0.49007,3.740103 -0.92503,7.58765 -1.34348,11.534177 -9.8e-4,0.0093 9.7e-4,0.01952 0,0.02886 -0.20867,1.968888 -0.4193,3.972891 -0.61069,5.983896 -9e-4,0.0093 9e-4,0.01933 0,0.02886 -0.19132,2.011394 -0.37518,4.02325 -0.54961,6.070621 -8.1e-4,0.009 8.1e-4,0.0193 0,0.0289 -0.34956,4.105 -0.66264,8.27528 -0.94655,12.48813 -6.4e-4,0.009 6.4e-4,0.0193 0,0.0289 -0.8526,12.65841 -1.42615,25.70584 -1.74043,38.44726 -2.4e-4,0.01 2.3e-4,0.0191 0,0.0289 -0.20952,8.50061 -0.30544,16.84816 -0.30544,24.88982 0,0.89512 0.027,1.81576 0.0305,2.71732 -0.004,0.90156 -0.0305,1.8222 -0.0305,2.71733 0,8.04159 0.096,16.3892 0.30534,24.88954 2.4e-4,0.01 -2.3e-4,0.0192 0,0.0289 0.31428,12.74141 0.88783,25.78884 1.74043,38.44726 6.5e-4,0.01 -6.3e-4,0.0195 0,0.0289 0.28392,4.21284 0.597,8.38312 0.94655,12.48813 8.1e-4,0.01 -8.1e-4,0.0195 0,0.0289 0.17443,2.04742 0.35829,4.05927 0.54961,6.07062 9.1e-4,0.01 -9e-4,0.0195 0,0.0289 0.19139,2.01101 0.40202,4.01501 0.61069,5.9839 9.7e-4,0.009 -9.7e-4,0.0195 0,0.0289 0.41844,3.94652 0.85341,7.79406 1.34348,11.53418 0.0295,0.22527 0.0618,0.44038 0.0916,0.66487 0.43525,3.27978 0.9115,6.48667 1.40457,9.56846 0.0349,0.21765 0.0565,0.44823 0.0916,0.66487 9.8e-4,0.009 -9.8e-4,0.0199 0,0.0289 2.26431,13.95656 5.14965,25.63239 8.7327,33.50404 0.004,0.008 -0.004,0.0209 0,0.0289 0.44465,0.97553 0.90738,1.89177 1.37402,2.74624 0.004,0.007 -0.004,0.0214 0,0.0289 0.46658,0.85295 0.97671,1.64452 1.46563,2.37043 0.005,0.006 -0.005,0.0224 0,0.0289 0.98218,1.45516 2.00951,2.64947 3.08391,3.55565 0.27496,0.23268 0.54329,0.44124 0.82442,0.63597 0.82745,0.57313 1.68311,0.98399 2.56485,1.21412 l 13.37383,3.46893 c 0,0 1.30817,0.37851 3.72515,1.04068 3.62612,0.99235 9.7416,2.65257 17.679113,4.62523 5.291682,1.31508 11.399992,2.78238 18.106585,4.30725 3.352803,0.76301 6.841794,1.53104 10.473118,2.31262 0.01,0.002 0.02062,-0.002 0.03048,0 5.438598,1.17037 11.176422,2.34927 17.098965,3.49783 1.977601,0.38348 3.935083,0.75194 5.954132,1.1274 0.0099,0.002 0.02071,-0.002 0.03049,0 4.028757,0.74895 8.148863,1.49705 12.305151,2.19699 4.166293,0.70158 8.396645,1.36488 12.641028,1.99463 4.244383,0.62971 8.490798,1.22813 12.7631741,1.76337 0.00997,9.1e-4 0.020617,-9.2e-4 0.030485,0 6.39856417,0.80117 12.8240086,1.49773 19.1447565,2.02354 2.110202,0.17554 4.200941,0.3233 6.28997,0.46252 4.178048,0.27836 8.310524,0.49099 12.36622,0.60707 4.055705,0.11602 8.210352,0.17948 12.427298,0.20235 8.584648,0.0465 17.470964,-0.10874 26.625531,-0.3758 13.329978,-0.38895 27.208682,-1.04965 41.403933,-1.85009 19.15533,-1.08014 38.88658,-2.39798 58.74723,-3.58456 14.67945,-0.87491 29.40898,-1.6719 43.99933,-2.2548 0.38701,-0.0155 0.77344,-0.0427 1.16027,-0.0578 7.22411,-0.28297 14.43138,-0.51017 21.55695,-0.66487 4.86459,-0.10569 9.70409,-0.17068 14.50356,-0.20236 2.39981,-0.0159 4.79495,-0.0338 7.17548,-0.0289 l 121.95229,0.26017 -8.45786,33.24387 3.41977,1.38757 c 1.70759,0.58521 4.84647,0.85893 6.32052,0.86723 0.8292,0.005 1.71487,-0.0685 2.62595,-0.23126 0.30355,-0.0541 0.60924,-0.13048 0.91602,-0.20236 0.29759,-0.0699 0.61808,-0.14492 0.91603,-0.23126 0.61402,-0.17858 1.23455,-0.38991 1.83199,-0.63597 1.77981,-0.73403 3.45329,-1.78662 4.67168,-3.06421 0.01,-0.01 0.0212,-0.0191 0.0305,-0.0289 0.61044,-0.64556 1.08677,-1.34245 1.43505,-2.11026 l 11.87769,-28.96553 107.41823,0.23127 c 0.72978,0.34588 1.44221,0.68927 2.16787,1.01177 2.91095,1.29464 5.77556,2.40239 8.64112,3.35329 1.42879,0.47416 2.8509,0.90241 4.27473,1.30085 4.98317,1.39451 9.95458,2.36027 14.99213,3.0064 2.87874,0.36943 5.79016,0.6419 8.73272,0.83832 1.47118,0.0982 2.96444,0.16662 4.45794,0.23126 2.98698,0.12947 5.99794,0.19688 9.09907,0.23127 6.20209,0.0685 12.68207,0 19.54172,0 10.1716,0 19.85673,-0.49137 29.09875,-1.44539 3.69684,-0.38155 7.3195,-0.83019 10.87006,-1.35866 7.10117,-1.05688 13.90243,-2.4226 20.42721,-4.04708 1.63113,-0.40612 3.25928,-0.83138 4.85488,-1.27194 4.78678,-1.32168 9.39261,-2.79863 13.86236,-4.42288 1.48997,-0.54139 2.97237,-1.07354 4.42746,-1.64774 2.91005,-1.1484 5.74722,-2.36529 8.51892,-3.64237 1.38585,-0.63851 2.77056,-1.2956 4.12206,-1.96573 2.70305,-1.34014 5.34158,-2.75662 7.9083,-4.22052 1.28339,-0.73196 2.53661,-1.49253 3.78618,-2.2548 6.24783,-3.8113 12.07987,-7.97898 17.49593,-12.51704 4.32721,-3.62566 8.40454,-7.47417 12.21357,-11.53418 0.005,-0.006 -0.005,-0.0235 0,-0.0289 0.94816,-1.01099 1.89258,-2.02733 2.80909,-3.06422 0.005,-0.006 -0.005,-0.0232 0,-0.0289 0.91626,-1.0369 1.83277,-2.08853 2.71754,-3.15094 0.005,-0.006 -0.005,-0.023 0,-0.0289 2.66316,-3.19899 5.19153,-6.49283 7.57236,-9.91535 0.005,-0.006 -0.005,-0.0222 0,-0.0289 0.79032,-1.13644 1.5916,-2.27965 2.35114,-3.44002 0.005,-0.007 -0.005,-0.022 0,-0.0289 2.28691,-3.4949 4.46217,-7.07889 6.47319,-10.78258 0.004,-0.007 -0.004,-0.0214 0,-0.0289 0.66735,-1.22953 1.31685,-2.47737 1.95413,-3.72909 0.004,-0.007 -0.004,-0.0212 0,-0.0289 0.63711,-1.25184 1.2859,-2.51328 1.89312,-3.78691 0.004,-0.008 -0.004,-0.021 0,-0.0289 1.21786,-2.55545 2.38221,-5.13557 3.48085,-7.77617 0.004,-0.008 -0.004,-0.0207 0,-0.0289 0.5474,-1.31626 1.06971,-2.65251 1.58778,-3.98927 0.003,-0.008 -0.003,-0.0205 0,-0.0289 0.51788,-1.33687 1.03798,-2.69 1.52671,-4.04708 0.48854,-1.35713 0.97554,-2.72799 1.4351,-4.10489 0.003,-0.008 -0.003,-0.0204 0,-0.0289 0.45933,-1.37701 0.91293,-2.76633 1.34345,-4.16271 0.003,-0.009 -0.003,-0.0201 0,-0.0289 0.4304,-1.39644 0.85019,-2.80512 1.2519,-4.22052 0.003,-0.009 -0.003,-0.0201 0,-0.0289 1.2098,-4.26463 2.31411,-8.60852 3.26711,-13.03738 v -0.0289 c 0.31619,-1.47029 0.5972,-2.96423 0.88555,-4.45179 v -0.0289 c 2.02719,-10.47001 3.3828,-21.33344 4.06099,-32.57899 4.8e-4,-0.01 -6e-4,-0.0195 0,-0.0289 0.0958,-1.59839 0.17462,-3.21513 0.24427,-4.82758 4.2e-4,-0.01 -3.6e-4,-0.0195 0,-0.0289 0.13937,-3.23485 0.24105,-6.48199 0.27475,-9.77081 0,-0.01 -6e-5,-0.0195 0,-0.0289 0.0166,-1.64932 0.01,-3.30988 0,-4.97213 0,-0.58814 -0.0215,-1.17612 -0.0303,-1.76337 0.01,-0.58725 0.0303,-1.17523 0.0303,-1.76337 0.01,-1.66231 0.0166,-3.32281 0,-4.97213 -6e-5,-0.009 0,-0.0193 0,-0.0289 -0.0332,-3.28887 -0.13538,-6.53596 -0.27475,-9.77081 -3.6e-4,-0.009 4.2e-4,-0.0193 0,-0.0289 -0.0694,-1.61245 -0.1485,-3.22919 -0.24427,-4.82758 -6e-4,-0.01 4.8e-4,-0.0193 0,-0.0289 -0.67819,-11.24548 -2.0338,-22.10898 -4.06099,-32.57899 v -0.0289 c -0.28835,-1.48756 -0.56936,-2.9815 -0.88555,-4.45179 v -0.0289 c -0.953,-4.42886 -2.05731,-8.77281 -3.26711,-13.03738 -0.003,-0.009 0.003,-0.0197 0,-0.0289 -0.40171,-1.4154 -0.8215,-2.82409 -1.2519,-4.22052 -0.003,-0.009 0.003,-0.0197 0,-0.0289 -0.43052,-1.39638 -0.88412,-2.78571 -1.34345,-4.162714 -0.003,-0.0083 0.003,-0.02063 0,-0.02886 -0.45956,-1.376849 -0.94656,-2.747704 -1.4351,-4.104895 -0.48873,-1.357026 -1.00883,-2.710156 -1.52671,-4.04708 -0.003,-0.0083 0.003,-0.02063 0,-0.02886 -0.51807,-1.336757 -1.04038,-2.673061 -1.58778,-3.989264 -0.004,-0.0083 0.004,-0.02063 0,-0.02886 -1.09864,-2.640602 -2.26299,-5.220724 -3.48085,-7.776175 -0.004,-0.0074 0.004,-0.02063 0,-0.02886 -0.60722,-1.273633 -1.25601,-2.535073 -1.89312,-3.786911 -0.004,-0.0074 0.004,-0.02155 0,-0.02886 -0.63728,-1.251727 -1.28678,-2.49956 -1.95413,-3.729095 -0.004,-0.0074 0.004,-0.02155 0,-0.02886 -2.01102,-3.703683 -4.18628,-7.287675 -6.47319,-10.782576 -0.005,-0.0065 0.005,-0.02155 0,-0.02886 -0.75954,-1.160314 -1.56082,-2.303523 -2.35114,-3.440017 -0.005,-0.0065 0.005,-0.02239 0,-0.02886 -2.38083,-3.422571 -4.9092,-6.716358 -7.57236,-9.915345 -0.005,-0.0055 0.005,-0.02338 0,-0.02885 -0.88477,-1.062417 -1.80128,-2.114047 -2.71754,-3.150941 -0.005,-0.0055 0.005,-0.02338 0,-0.02885 -0.91651,-1.036894 -1.86093,-2.053234 -2.80909,-3.064218 -0.005,-0.0055 0.005,-0.02343 0,-0.02885 -3.80903,-4.060003 -7.88636,-7.908512 -12.21357,-11.534177 -5.41606,-4.538058 -11.2481,-8.705792 -17.49593,-12.51704 -1.24957,-0.762267 -2.50279,-1.522849 -3.78618,-2.254802 -2.56672,-1.463905 -5.20525,-2.880383 -7.9083,-4.220526 -1.3515,-0.670122 -2.73621,-1.3272109 -4.12206,-1.9657244 -2.7717,-1.2770734 -5.60887,-2.4940187 -8.51892,-3.6423718 -1.45509,-0.5741951 -2.93749,-1.1063371 -4.42746,-1.6477391 -4.46975,-1.624244 -9.07558,-3.10124697 -13.86236,-4.42287997 -1.5956,-0.440553 -3.22375,-0.86581603 -4.85488,-1.27193903 -6.52478,-1.624475 -13.32604,-2.990195 -20.42721,-4.04708 -3.55056,-0.528461 -7.17322,-0.977099 -10.87006,-1.358662 -9.24191,-0.955194 -18.92698,-1.446625 -29.09863,-1.446625 -6.85964,0 -13.33964,-0.06855 -19.54166,0 -3.10113,0.03444 -6.11209,0.101856 -9.09913,0.231261 -1.49343,0.06471 -2.98669,0.133133 -4.45794,0.231262 -2.94256,0.19648 -5.85398,0.468962 -8.73267,0.838324 -5.03755,0.646136 -10.00896,1.611949 -14.99218,3.006402 -1.42377,0.398501 -2.84595,0.826695 -4.27473,1.300847 -2.8655,0.950911 -5.73017,2.05866403 -8.64106,3.35329403 -0.72567,0.322499 -1.43815,0.66589497 -2.16793,1.01176997 L 406.68277,1.7236347 394.8051,-27.241883 c -0.34829,-0.767799 -0.8246,-1.464664 -1.43511,-2.110263 -0.01,-0.0097 -0.0208,-0.01906 -0.0305,-0.02888 -1.21845,-1.277555 -2.89187,-2.330175 -4.67168,-3.064218 -0.5975,-0.245998 -1.21803,-0.457352 -1.83205,-0.63597 -0.29795,-0.0863 -0.61838,-0.1613 -0.91603,-0.231261 -0.30683,-0.07187 -0.61247,-0.14823 -0.91608,-0.202354 -0.91102,-0.162716 -1.79675,-0.235859 -2.62589,-0.231262 z"
       id="path3855"
       stroke-miterlimit="4"
       inkscape:connector-curvature="0"
       style="fill:#000000;stroke:#191919;stroke-width:13.31000614;stroke-miterlimit:4" />
    <path
       d="m 382.37767,-33.745657 c -1.47405,0.0083 -4.61293,0.283175 -6.32052,0.867231 l -3.41978,1.38757 8.45786,33.1571737 -121.95234,0.260169 C 182.96576,2.0794437 96.434599,-8.7149923 31.543336,-6.8614573 -33.347868,-5.0079693 -117.0956,19.039852 -117.0956,19.039852 l -13.37383,3.497833 c -18.81027,4.899299 -25.1294,90.069045 -25.1294,154.280465 0,1.02956 0.026,2.08424 0.0305,3.12203 -0.005,1.03775 -0.0305,2.09243 -0.0305,3.12204 0,64.21137 6.31913,149.38111 25.1294,154.28046 l 13.37383,3.49783 c 0,0 83.747732,24.04783 148.638936,25.90131 64.891263,1.85349 151.422424,-8.94095 227.599554,-8.78795 l 121.95234,0.26017 -8.45786,33.15715 3.41978,1.38757 c 1.70759,0.58403 4.84647,0.85893 6.32052,0.86723 0.82913,0.005 1.71487,-0.0688 2.62589,-0.23126 0.30361,-0.054 0.60924,-0.13064 0.91602,-0.20235 0.29764,-0.0697 0.61814,-0.14511 0.91603,-0.23127 0.61408,-0.17823 1.23455,-0.39041 1.83205,-0.63597 1.77981,-0.73268 3.45329,-1.76015 4.67168,-3.03531 0.01,-0.01 0.0212,-0.0192 0.0305,-0.0289 0.6105,-0.64432 1.08682,-1.34387 1.43511,-2.11026 l 11.87768,-28.90771 107.41817,0.23126 c 23.35295,11.04727 44.46879,9.91534 71.90731,9.91534 130.19675,0 183.32867,-80.09637 182.71489,-186.28129 0,-0.72168 -0.0186,-1.44827 -0.0303,-2.16808 0.0117,-0.71975 0.0303,-1.44634 0.0303,-2.16808 C 769.33678,71.587253 716.20486,-8.5091903 586.00811,-8.5091903 c -27.43852,0 -48.55436,-1.131915 -71.90731,9.915345 L 406.68263,1.6374167 394.80495,-27.270268 c -0.34829,-0.766364 -0.82461,-1.465903 -1.43511,-2.110263 -0.01,-0.0096 -0.0208,-0.01905 -0.0305,-0.02887 -1.21839,-1.275158 -2.89187,-2.302654 -4.67168,-3.035309 -0.5975,-0.245554 -1.21797,-0.457732 -1.83205,-0.63597 -0.29789,-0.0861 -0.61839,-0.161513 -0.91603,-0.231262 -0.30678,-0.07176 -0.61241,-0.148322 -0.91602,-0.202354 -0.91102,-0.162438 -1.79676,-0.235868 -2.62589,-0.231261 z"
       id="path2853"
       inkscape:connector-curvature="0"
       style="fill:#000000;stroke-width:0.95071471" />
    <path
       d="m 177.00711,300.69877 c -32.59986,0 -63.81102,1.66506 -92.63977,4.68305 25.07245,45.06243 95.74067,27.99683 200.85189,29.16788 48.54827,0.54088 87.49209,1.73841 118.74625,2.19699 -46.07947,-21.5852 -130.46822,-36.04792 -226.95837,-36.04792 z"
       id="path3643"
       inkscape:connector-curvature="0"
       style="opacity:0.9;fill:#7f7f7f;stroke-width:0.95071471" />
    <path
       d="m 177.00711,300.69877 c -3.13298,0 -6.23685,0.0273 -9.34335,0.0578 0.79952,14.95895 6.2808,27.98871 14.25933,35.93229 4.56442,-0.0699 9.2776,-0.18181 14.10666,-0.31798 -8.36948,-7.57829 -14.25837,-20.56197 -15.35853,-35.67212 -1.22262,-0.005 -2.43755,0 -3.66411,0 z"
       id="path3658"
       inkscape:connector-curvature="0"
       style="opacity:0.5;fill:#000000;stroke-width:0.95071471" />
    <path
       d="m 752.20442,275.04125 -4.977,0.54925 c -21.05126,2.32436 -36.82499,24.03139 -38.3811,50.44396 l -0.36641,6.59096 5.12969,-4.4807 c 15.52521,-13.58008 27.65487,-30.07085 36.54904,-48.79622 l 2.04579,-4.30725 z"
       id="path3707"
       stroke-miterlimit="4"
       inkscape:connector-curvature="0"
       style="fill:#ffff00;fill-rule:nonzero;stroke:#191919;stroke-width:4.75357342;stroke-miterlimit:4" />
    <path
       d="m 551.36588,285.21501 c 0,0 77.85222,-20.90275 102.96262,-29.58467 26.22465,-9.06714 96.5945,-36.21154 96.5945,-36.21154 0,0 -8.54074,39.28643 -29.78463,53.57695 -75.45445,50.75703 -227.35615,49.81713 -227.35615,49.81713"
       id="path3715"
       stroke-miterlimit="4"
       inkscape:connector-curvature="0"
       style="opacity:0.5;fill:none;stroke:#292929;stroke-width:5.70428801;stroke-linecap:round;stroke-linejoin:round;stroke-miterlimit:4" />
    <path
       d="m 635.87963,266.10334 -4.3358,2.16808 c 0.96649,1.07009 1.75435,2.24662 2.32054,3.55565 4.68802,10.83882 -10.48993,27.04464 -26.25913,33.09933 -0.50488,0.19389 -1.77133,0.77763 -3.32817,1.53211 l 13.31274,-3.58456 c 16.9094,-7.82371 26.84125,-21.3519 22.47295,-31.45159 -0.89515,-2.06966 -2.32078,-3.85381 -4.18313,-5.31902 z"
       id="path3757"
       style="fill:url(#linearGradient4149);stroke-width:0.95071471"
       inkscape:connector-curvature="0" />
    <path
       d="m 644.26718,261.97666 -4.3358,2.16808 c 0.96647,1.07009 1.75435,2.24662 2.32054,3.55565 4.68802,10.83881 -10.48993,27.04463 -26.25913,33.09933 -0.50494,0.19388 -1.77133,0.77762 -3.32817,1.53211 l 13.31274,-3.58456 c 16.9094,-7.82372 26.84125,-21.3519 22.47295,-31.45159 -0.89516,-2.06967 -2.32079,-3.85382 -4.18313,-5.31902 z"
       id="path3787"
       style="fill:url(#linearGradient4203);stroke-width:0.95071471"
       inkscape:connector-curvature="0" />
    <path
       d="m 650.31253,260.66841 -4.33579,2.16808 c 0.96648,1.0701 1.75434,2.24662 2.32054,3.55565 4.68801,10.83881 -10.48994,27.04463 -26.25913,33.09933 -0.50489,0.19388 -1.77134,0.77763 -3.32817,1.53211 l 13.31274,-3.58456 c 16.90939,-7.82371 26.84124,-21.3519 22.47294,-31.45159 -0.89515,-2.06967 -2.32077,-3.85382 -4.18313,-5.31902 z"
       id="path3752"
       style="fill:url(#linearGradient4155);stroke-width:0.95071471"
       inkscape:connector-curvature="0" />
    <path
       d="m 666.83172,256.71546 -6.04572,1.70555 c 0.93816,1.58445 1.61659,3.26753 1.98473,5.05885 3.04794,14.83208 -20.48183,31.71391 -42.04519,35.6143 -3.3172,0.60001 -28.22238,7.93319 -31.42132,8.14452 v 3.81582 l 40.48986,-11.23764 c 25.68333,-5.08432 43.91929,-20.76545 40.91543,-35.38304 -0.582,-2.83217 -1.91125,-5.42037 -3.87779,-7.71836 z"
       id="path3735"
       style="fill:url(#linearGradient4205);stroke-width:0.95071471"
       inkscape:connector-curvature="0" />
    <path
       d="m 666.83172,256.71546 -6.04572,1.70555 c 0.93816,1.58445 1.61659,3.26753 1.98473,5.05885 3.04794,14.83208 -20.48183,31.71391 -42.04519,35.6143 -3.3172,0.60001 -28.22238,7.93319 -31.42132,8.14452 v 3.81582 l 40.48986,-11.23764 c 25.68333,-5.08432 43.91929,-20.76545 40.91543,-35.38304 -0.582,-2.83217 -1.91125,-5.42037 -3.87779,-7.71836 z"
       id="path3783"
       style="fill:url(#linearGradient4207);stroke-width:0.95071471"
       inkscape:connector-curvature="0" />
    <path
       d="m 623.32727,270.37655 -3.87332,1.93682 c 0.86343,0.95587 1.56726,2.00694 2.07305,3.17629 4.1879,9.68256 -9.3709,24.15962 -23.45785,29.56841 -0.4511,0.17316 -1.58242,0.69469 -2.97315,1.36865 l 11.8926,-3.20215 c 15.10549,-6.98911 23.97789,-19.07412 20.07553,-28.09643 -0.79968,-1.84885 -2.07322,-3.44267 -3.73686,-4.75159 z"
       id="path3799"
       style="fill:url(#linearGradient4209);stroke-width:0.95071471"
       inkscape:connector-curvature="0" />
    <path
       d="m 609.83621,273.68202 -3.87325,1.93682 c 0.86336,0.95587 1.5672,2.00694 2.07299,3.17629 4.18789,9.68256 -9.37091,24.15956 -23.45785,29.56841 -0.4511,0.17317 -1.58242,0.69469 -2.97315,1.36865 l 11.8926,-3.2022 c 15.10548,-6.98906 23.97789,-19.07406 20.07553,-28.09638 -0.79968,-1.84885 -2.07317,-3.44267 -3.73687,-4.75159 z"
       id="path3803"
       style="fill:url(#linearGradient4153);stroke-width:0.95071471"
       inkscape:connector-curvature="0" />
    <path
       d="m 13.759682,291.89885 c 8.103077,-1.87172 15.130832,-1.36797 19.344006,5.35341 l -2.436249,16.5553 c -6.717634,5.71057 -13.435279,4.57984 -20.152923,0.14381 z"
       id="rect3861"
       style="fill:url(#linearGradient4211);stroke-width:0.95071471"
       inkscape:connector-curvature="0" />
    <path
       d="m 33.571453,294.91756 c 7.963538,-1.11949 14.819275,-0.52988 18.411222,5.09527 l -2.318753,15.75701 c -6.335405,2.75182 -12.685535,4.81918 -19.181173,0.13686 z"
       id="path3864"
       style="fill:url(#linearGradient4213);stroke-width:0.95071471"
       inkscape:connector-curvature="0" />
    <path
       d="m 177.00711,298.39869 c -32.68768,0 -63.99195,1.65524 -92.914578,4.68305 l -3.572473,0.3758 1.679352,3.0064 c 6.518259,11.71518 16.182258,19.53088 28.396509,24.45592 12.21431,4.92504 26.94059,7.04202 44.06042,7.80509 34.23962,1.52612 78.1228,-2.43402 130.53236,-1.8501 48.52119,0.54055 87.45768,1.73791 118.74624,2.19699 l 1.09924,-4.39397 C 358.28093,312.77705 273.75506,298.39869 177.00711,298.39869 Z m 0,4.62523 c 89.08125,0 167.81342,12.46836 215.05014,31.19142 -29.26596,-0.53875 -63.71822,-1.48564 -106.80749,-1.96572 -52.70166,-0.58714 -96.7088,3.37842 -130.34915,1.879 -16.82021,-0.74974 -31.03922,-2.87265 -42.41157,-7.45819 -10.21376,-4.11839 -18.061881,-10.31831 -23.93859,-19.33926 27.65908,-2.75945 57.38938,-4.30725 88.45666,-4.30725 z"
       id="path4025"
       inkscape:connector-curvature="0"
       style="opacity:0.9;fill:#191919;fill-rule:nonzero;stroke-width:4.75357342" />
    <path
       d="m 40.367626,71.420628 -75.968303,11.534177 c -26.528526,4.027774 -47.826008,45.117095 -49.8313,96.985375 2.005292,51.86829 23.302774,92.95761 49.8313,96.98538 l 75.968303,11.53417 c 12.991326,0 23.450032,-9.90168 23.450032,-22.20112 V 93.621751 c 0,-12.299441 -10.458706,-22.201123 -23.450032,-22.201123 z"
       id="rect2864"
       stroke-miterlimit="4"
       inkscape:connector-curvature="0"
       style="opacity:0.9;fill:#7f7f7f;stroke:#191919;stroke-width:4.75357342;stroke-miterlimit:4" />
    <path
       d="m 461.94893,39.766683 c -2.90116,0 -5.75826,0.307263 -8.57998,0.896139 -0.0102,-0.0093 -0.0203,-0.01942 -0.0305,-0.02885 l -62.38073,11.389636 c -17.32173,6.109638 -31.26669,13.20225 -31.26669,29.601498 V 278.25537 c 0,16.3992 13.94496,23.49187 31.26669,29.60149 l 62.38074,11.38964 c 0.0103,-0.009 0.0202,-0.0195 0.0305,-0.0289 2.82173,0.58889 5.67883,0.89614 8.57999,0.89614 44.35572,0 80.31483,-53.06315 80.42623,-140.1735 C 542.26364,92.829892 506.30454,39.766794 461.94888,39.766794 Z"
       id="path3703"
       stroke-miterlimit="4"
       inkscape:connector-curvature="0"
       style="opacity:0.9;fill:#7f7f7f;stroke:#191919;stroke-width:4.75357342;stroke-miterlimit:4;stroke-dashoffset:0" />
    <path
       d="m 177.00711,59.181435 c -32.59986,0 -63.81102,-1.665075 -92.63977,-4.683049 25.07245,-45.0624437 95.74067,-27.996837 200.85189,-29.167882 48.54827,-0.540893 87.49209,-1.738422 118.74625,-2.196986 -46.07947,21.58519 -130.46822,36.047917 -226.95837,36.047917 z"
       id="path4157"
       inkscape:connector-curvature="0"
       style="opacity:0.9;fill:#7f7f7f;stroke-width:0.95071471" />
    <path
       d="m 177.00711,59.181435 c -3.13298,0 -6.23685,-0.02729 -9.34335,-0.05781 0.79952,-14.95895 6.2808,-27.988706 14.25933,-35.932287 4.56442,0.06995 9.2776,0.1818 14.10666,0.317985 -8.36948,7.57828 -14.25837,20.561959 -15.35853,35.672117 -1.22262,0.0046 -2.43755,0 -3.66411,0 z"
       id="path4159"
       inkscape:connector-curvature="0"
       style="opacity:0.5;fill:#000000;stroke-width:0.95071471" />
    <path
       d="m 752.20442,84.838949 -4.977,-0.549246 C 726.17616,81.965338 710.40243,60.258301 708.84632,33.845745 l -0.36641,-6.590958 5.12969,4.480695 c 15.52521,13.580075 27.65487,30.070848 36.54904,48.796218 l 2.04579,4.307249 z"
       id="path4161"
       stroke-miterlimit="4"
       inkscape:connector-curvature="0"
       style="fill:#ffff00;fill-rule:nonzero;stroke:#191919;stroke-width:4.75357342;stroke-miterlimit:4" />
    <path
       d="m 551.36588,74.665183 c 0,0 77.85222,20.902755 102.96262,29.584667 26.22465,9.06715 96.5945,36.21155 96.5945,36.21155 0,0 -8.54074,-39.28644 -29.78463,-53.57695 C 645.68392,36.127419 493.78222,37.067368 493.78222,37.067368"
       id="path4163"
       stroke-miterlimit="4"
       inkscape:connector-curvature="0"
       style="opacity:0.5;fill:none;stroke:#292929;stroke-width:5.70428801;stroke-linecap:round;stroke-linejoin:round;stroke-miterlimit:4" />
    <path
       d="m 635.87963,93.776853 -4.3358,-2.168078 c 0.96649,-1.070094 1.75435,-2.246615 2.32054,-3.555649 4.68802,-10.83881 -10.48993,-27.04464 -26.25913,-33.09933 -0.50488,-0.19389 -1.77133,-0.777632 -3.32817,-1.532109 l 13.31274,3.584556 c 16.9094,7.823713 26.84125,21.351903 22.47295,31.451591 -0.89515,2.069663 -2.32078,3.85381 -4.18313,5.319019 z"
       id="path4165"
       style="fill:url(#linearGradient4185);stroke-width:0.95071471"
       inkscape:connector-curvature="0" />
    <path
       d="m 644.26718,97.903598 -4.3358,-2.168078 c 0.96647,-1.070095 1.75435,-2.246615 2.32054,-3.555649 4.68802,-10.83881 -10.48993,-27.04464 -26.25913,-33.099331 -0.50494,-0.193889 -1.77133,-0.777631 -3.32817,-1.532108 l 13.31274,3.584556 c 16.9094,7.823713 26.84125,21.351902 22.47295,31.451591 -0.89516,2.069663 -2.32079,3.85381 -4.18313,5.319019 z"
       id="path4167"
       style="fill:url(#linearGradient4187);stroke-width:0.95071471"
       inkscape:connector-curvature="0" />
    <path
       d="m 650.31253,99.211781 -4.33579,-2.168079 c 0.96648,-1.070094 1.75434,-2.246615 2.32054,-3.555648 4.68801,-10.838811 -10.48994,-27.044631 -26.25913,-33.099331 -0.50489,-0.19388 -1.77134,-0.777631 -3.32817,-1.532109 l 13.31274,3.584557 c 16.90939,7.823712 26.84124,21.351902 22.47294,31.451591 -0.89515,2.069672 -2.32077,3.853819 -4.18313,5.319019 z"
       id="path4169"
       style="fill:url(#linearGradient4189);stroke-width:0.95071471"
       inkscape:connector-curvature="0" />
    <path
       d="m 666.83172,103.1648 -6.04572,-1.70555 c 0.93816,-1.584451 1.61659,-3.267537 1.98473,-5.058853 3.04794,-14.832089 -20.48183,-31.713907 -42.04519,-35.614302 -3.3172,-0.600013 -28.22238,-7.933192 -31.42132,-8.144528 v -3.815818 l 40.48986,11.237654 c 25.68333,5.084307 43.91929,20.765441 40.91543,35.383039 -0.582,2.832161 -1.91125,5.420358 -3.87779,7.718358 z"
       id="path4171"
       style="fill:url(#linearGradient4191);stroke-width:0.95071471"
       inkscape:connector-curvature="0" />
    <path
       d="m 666.83172,103.1648 -6.04572,-1.70555 c 0.93816,-1.584451 1.61659,-3.267537 1.98473,-5.058853 3.04794,-14.832089 -20.48183,-31.713907 -42.04519,-35.614302 -3.3172,-0.600013 -28.22238,-7.933192 -31.42132,-8.144528 v -3.815818 l 40.48986,11.237654 c 25.68333,5.084307 43.91929,20.765441 40.91543,35.383039 -0.582,2.832161 -1.91125,5.420358 -3.87779,7.718358 z"
       id="path4173"
       style="fill:url(#linearGradient4193);stroke-width:0.95071471"
       inkscape:connector-curvature="0" />
    <path
       d="m 623.32727,89.503646 -3.87332,-1.936761 c 0.86343,-0.955935 1.56726,-2.006945 2.07305,-3.176352 4.1879,-9.682557 -9.3709,-24.159614 -23.45785,-29.568353 -0.4511,-0.173215 -1.58242,-0.694747 -2.97315,-1.368708 l 11.8926,3.202151 c 15.10549,6.989117 23.97789,19.074122 20.07553,28.096427 -0.79968,1.848854 -2.07322,3.442673 -3.73686,4.751596 z"
       id="path4175"
       style="fill:url(#linearGradient4195);stroke-width:0.95071471"
       inkscape:connector-curvature="0" />
    <path
       d="m 609.83621,86.198176 -3.87325,-1.936817 c 0.86336,-0.955878 1.5672,-2.006944 2.07299,-3.176296 4.18789,-9.682557 -9.37091,-24.159623 -23.45785,-29.568408 -0.4511,-0.173169 -1.58242,-0.694692 -2.97315,-1.368653 l 11.8926,3.202207 c 15.10548,6.989052 23.97789,19.074057 20.07553,28.096372 -0.79968,1.848854 -2.07317,3.442672 -3.73687,4.751595 z"
       id="path4177"
       style="fill:url(#linearGradient4197);stroke-width:0.95071471"
       inkscape:connector-curvature="0" />
    <path
       d="m 13.759682,67.98135 c 8.103077,1.871712 15.130832,1.367978 19.344006,-5.353403 L 30.667439,46.072634 C 23.949805,40.362061 17.23216,41.492792 10.514516,45.928826 l 3.245166,22.052515 z"
       id="path4179"
       style="fill:url(#linearGradient4199);stroke-width:0.95071471"
       inkscape:connector-curvature="0" />
    <path
       d="m 33.571453,64.962691 c 7.963538,1.119501 14.819275,0.529885 18.411222,-5.095269 L 49.663922,44.110406 c -6.335405,-2.751819 -12.685535,-4.81917 -19.181173,-0.13686 z"
       id="path4181"
       style="fill:url(#linearGradient4201);stroke-width:0.95071471"
       inkscape:connector-curvature="0" />
    <path
       d="m 177.00711,61.481518 c -32.68768,0 -63.99195,-1.655251 -92.914578,-4.683049 l -3.572473,-0.375801 1.679352,-3.006402 c 6.518259,-11.71519 16.182258,-19.530892 28.396509,-24.455924 12.21431,-4.925042 26.94059,-7.042022 44.06042,-7.805084 34.23962,-1.526123 78.1228,2.434003 130.53236,1.850095 48.52119,-0.540617 87.45768,-1.737914 118.74624,-2.196987 l 1.09924,4.393973 C 358.28093,47.103146 273.75506,61.481518 177.00711,61.481518 Z m 0,-4.625234 c 89.08125,0 167.81342,-12.468373 215.05014,-31.191422 -29.26596,0.538738 -63.71822,1.485635 -106.80749,1.965725 -52.70166,0.587127 -96.7088,-3.378429 -130.34915,-1.879001 -16.82021,0.749731 -31.03922,2.87264 -42.41157,7.458189 -10.21376,4.118383 -18.061881,10.318296 -23.93859,19.33926 27.65908,2.759442 57.38938,4.307249 88.45666,4.307249 z"
       id="path4183"
       inkscape:connector-curvature="0"
       style="opacity:0.9;fill:#191919;fill-rule:nonzero;stroke-width:4.75357342" />
  </g>
</svg>
