<?xml version="1.0" encoding="UTF-8" standalone="no"?>
<!-- Generator: Adobe Illustrator 16.0.0, SVG Export Plug-In . SVG Version: 6.00 Build 0)  -->

<svg
   xmlns:dc="http://purl.org/dc/elements/1.1/"
   xmlns:cc="http://creativecommons.org/ns#"
   xmlns:rdf="http://www.w3.org/1999/02/22-rdf-syntax-ns#"
   xmlns:svg="http://www.w3.org/2000/svg"
   xmlns="http://www.w3.org/2000/svg"
   xmlns:sodipodi="http://sodipodi.sourceforge.net/DTD/sodipodi-0.dtd"
   xmlns:inkscape="http://www.inkscape.org/namespaces/inkscape"
   version="1.1"
   id="Layer_1"
   x="0px"
   y="0px"
   width="50.78381"
   height="51.533833"
   viewBox="0 0 50.78381 51.533833"
   xml:space="preserve"
   sodipodi:docname="element3.svg"
   inkscape:version="0.92.1 r15371"><metadata
     id="metadata5588"><rdf:RDF><cc:Work
         rdf:about=""><dc:format>image/svg+xml</dc:format><dc:type
           rdf:resource="http://purl.org/dc/dcmitype/StillImage" /><dc:title></dc:title></cc:Work></rdf:RDF></metadata><defs
     id="defs5586" /><sodipodi:namedview
     pagecolor="#ffffff"
     bordercolor="#666666"
     borderopacity="1"
     objecttolerance="10"
     gridtolerance="10"
     guidetolerance="10"
     inkscape:pageopacity="0"
     inkscape:pageshadow="2"
     inkscape:window-width="1600"
     inkscape:window-height="806"
     id="namedview5584"
     showgrid="false"
     inkscape:zoom="4.7676768"
     inkscape:cx="53.405211"
     inkscape:cy="22.596413"
     inkscape:window-x="-11"
     inkscape:window-y="-11"
     inkscape:window-maximized="1"
     inkscape:current-layer="Layer_1" /><g
     id="g5581"
     transform="translate(-279.99992,-371.00127)"><path
       style="clip-rule:evenodd;fill:#b0b0b0;fill-rule:evenodd"
       d="m 314.428,416.465 c 1.182,-0.591 3.544,-0.452 6.115,-1.46 2.57,-1.007 5.35,-3.161 5.94,-5.142 0.59,-1.979 -1.008,-3.786 -1.945,-5.662 -0.938,-1.877 -1.217,-3.822 -0.035,-6.358 1.182,-2.536 3.821,-5.663 5.177,-8.546 1.354,-2.884 1.425,-5.524 0.417,-7.643 -1.008,-2.119 -3.093,-3.718 -5.594,-4.69 -2.501,-0.972 -5.42,-1.32 -9.241,-2.467 -3.821,-1.146 -8.547,-3.091 -11.951,-3.438 -3.405,-0.348 -5.489,0.903 -6.532,3.057 -1.042,2.154 -1.042,5.211 -1.771,7.99 -0.73,2.78 -2.19,5.281 -4.865,8.06 -2.675,2.78 -6.566,5.837 -8.546,9.485 -1.98,3.648 -2.05,7.887 -0.591,11.604 1.46,3.718 4.447,6.913 8.512,8.859 4.065,1.945 9.207,2.641 13.341,2.362 4.134,-0.277 7.261,-1.528 8.824,-2.813 1.564,-1.288 1.564,-2.607 2.745,-3.198 z"
       id="path5577"
       inkscape:connector-curvature="0" /><path
       style="clip-rule:evenodd;fill:#666666;fill-rule:evenodd"
       d="m 298.066,386.393 c -0.226,1.059 -0.991,2.901 -2.31,4.604 -1.321,1.702 -3.197,3.265 -4.482,4.342 -1.286,1.077 -1.98,1.668 -2.988,1.894 -1.007,0.226 -2.328,0.087 -2.293,-0.746 0.035,-0.834 1.424,-2.363 2.571,-3.579 1.146,-1.216 2.05,-2.119 3.092,-3.005 1.042,-0.886 2.224,-1.754 3.249,-2.606 1.025,-0.851 1.894,-1.685 2.484,-1.963 0.59,-0.279 0.903,-0.002 0.677,1.059 z m -15.755,21.556 c 0.66,1.042 1.598,2.536 2.554,3.684 0.955,1.146 1.928,1.945 3.126,2.709 1.199,0.765 2.623,1.494 3.648,1.859 1.025,0.364 1.65,0.364 2.275,0.868 0.626,0.504 1.251,1.511 2.379,2.137 1.13,0.625 2.763,0.869 4.326,0.903 1.564,0.034 3.058,-0.14 3.18,-0.035 0.122,0.104 -1.129,0.486 -2.606,0.765 -1.477,0.277 -3.179,0.452 -5.211,0.208 -2.032,-0.243 -4.395,-0.902 -6.706,-2.223 -2.31,-1.32 -4.568,-3.301 -5.801,-4.708 -1.233,-1.407 -1.442,-2.24 -1.703,-3.544 -0.26,-1.303 -0.573,-3.074 -0.539,-3.665 0.036,-0.591 0.418,0.001 1.078,1.042 z m 29.486,0.062 c 0.13,1.155 -0.147,2.51 -0.808,3.604 -0.66,1.094 -1.702,1.928 -2.693,2.423 -0.989,0.495 -1.928,0.651 -2.701,0.6 -0.772,-0.052 -1.381,-0.313 -1.381,-1.077 0,-0.765 0.608,-2.033 1.372,-3.214 0.765,-1.181 1.686,-2.275 2.545,-3.161 0.86,-0.886 1.659,-1.563 2.328,-1.425 0.669,0.138 1.208,1.094 1.338,2.25 z m 6.088,6.808 c 0.452,0.009 1.217,-0.008 2.007,-0.269 0.79,-0.261 1.607,-0.765 2.319,-1.32 0.712,-0.555 1.319,-1.164 1.841,-1.911 0.521,-0.746 0.956,-1.633 0.981,-2.632 0.026,-0.998 -0.355,-2.11 -0.799,-3.048 -0.443,-0.938 -0.946,-1.703 -1.433,-2.537 -0.487,-0.833 -0.956,-1.736 -1.294,-2.093 -0.339,-0.356 -0.548,-0.165 -0.738,0.799 -0.191,0.965 -0.365,2.701 -0.86,4.213 -0.495,1.512 -1.312,2.797 -2.023,3.761 -0.711,0.964 -1.32,1.606 -1.434,2.362 -0.112,0.756 0.27,1.625 0.469,2.076 0.2,0.451 0.218,0.486 0.296,0.521 0.077,0.035 0.217,0.071 0.668,0.078 z m -0.798,-24.501 c 0.626,-0.156 1.807,-0.086 2.449,0.469 0.643,0.556 0.747,1.599 0.209,2.188 -0.539,0.591 -1.72,0.73 -2.397,0.365 -0.678,-0.365 -0.852,-1.233 -0.903,-1.859 -0.053,-0.624 0.017,-1.006 0.642,-1.163 z m 9.328,-2.832 c -0.712,-0.764 -1.755,-2.049 -2.362,-3.439 -0.608,-1.389 -0.781,-2.883 -1.32,-3.926 -0.538,-1.042 -1.441,-1.633 -1.65,-2.084 -0.208,-0.452 0.278,-0.764 1.233,-0.712 0.956,0.052 2.38,0.469 3.578,1.216 1.199,0.747 2.172,1.823 2.78,2.918 0.607,1.094 0.852,2.206 0.659,3.422 -0.191,1.216 -0.816,2.536 -1.319,3.075 -0.504,0.539 -0.887,0.295 -1.599,-0.47 z m -10.943,-6.479 c 0.747,0.921 0.955,2.45 0.243,3.179 -0.713,0.729 -2.346,0.66 -3.404,-0.053 -1.061,-0.712 -1.547,-2.067 -1.478,-2.953 0.07,-0.886 0.695,-1.303 1.65,-1.355 0.956,-0.051 2.242,0.262 2.989,1.182 z"
       id="path5579"
       inkscape:connector-curvature="0" /></g></svg>