<?xml version="1.0" encoding="UTF-8"?>
<svg width="288px" height="288px" viewBox="0 0 288 288" version="1.1" xmlns="http://www.w3.org/2000/svg" xmlns:xlink="http://www.w3.org/1999/xlink">
    <!-- Generator: Sketch 42 (36781) - http://www.bohemiancoding.com/sketch -->
    <title>Bang</title>
    <desc>Created with Sketch.</desc>
    <defs></defs>
    <g id="Page-1" stroke="none" stroke-width="1" fill="none" fill-rule="evenodd">
        <g id="Bang">
            <path d="M287.70927,162.958078 C287.70927,162.958078 259.233403,157.107592 257.889458,133.313147 C256.544094,109.520182 270.148577,95.5365642 270.148577,95.5365642 C270.148577,95.5365642 259.432495,118.822069 226.903914,105.660632 C194.376753,92.4991958 206.062122,71.0260519 206.062122,71.0260519 C206.062122,71.0260519 192.885215,89.0076277 172.694817,86.1004534 C152.505838,83.1917996 147.232237,58.5612287 147.232237,58.5612287 C147.232237,58.5612287 128.417006,88.3329857 104.352299,89.8331764 C83.010962,91.1632272 51.9838534,58.101332 51.9838534,58.101332 C51.9838534,58.101332 68.7526552,87.9734726 50.7945968,102.000404 C32.8365383,116.027335 0,109.385958 0,109.385958 C0,109.385958 39.8363469,115.173455 48.6635259,140.1574 C57.4907049,165.142825 32.9683155,195.175191 32.9683155,195.175191 C32.9683155,195.175191 76.4438986,171.674312 104.489351,197.75455 C132.534803,223.834789 132.914326,231.7109 132.914326,231.7109 C132.914326,231.7109 150.151451,184.410509 186.303148,202.202711 C222.454846,219.991955 228.021909,228.378708 228.021909,228.378708 C228.021909,228.378708 223.540504,187.254066 239.443618,177.196574 C255.346731,167.139083 287.70927,162.958078 287.70927,162.958078 Z" id="blob" fill="#FFF101"></path>
            <path d="M220.357251,192.075626 L220.575242,192.153896 L222.591242,192.878673 L240.216569,149.815166 L237.933043,148.921137 L228.068018,145.060171 L238.914427,138.079507 L240.909953,136.793744 L240.791963,136.42858 L242.642047,135.237725 L244.636209,133.953327 L243.888227,131.637043 C243.746275,131.194806 240.224758,120.75037 226.538616,116.835754 C218.272041,114.470008 209.852158,116.860009 202.399426,123.329483 C200.321034,124.704184 198.299209,126.381176 196.355621,128.347394 L201.610919,109.021536 L198.821005,108.887773 L182.125194,108.090654 L179.941308,107.985555 L179.413913,110.979678 L178.397573,110.931071 L176.215052,110.825972 L173.136554,128.298368 L169.008227,111.481137 L167.42764,111.459299 L151.139943,111.24091 L149.067981,111.213611 L148.496486,114.095937 L147.413687,114.081327 L145.34036,114.054028 L144.85854,116.482237 L141.70587,132.392297 L138.903355,112.257782 L136.918749,112.463886 L122.752152,113.931185 L121.421346,114.069043 L120.719773,115.474919 L120.13129,116.656828 L119.023166,116.771602 L117.693725,116.90946 L104.86059,142.683218 C103.829233,139.72764 102.109403,137.627125 100.658047,136.270976 C104.407507,131.574256 111.056076,121.136645 108.335773,108.809972 C104.654559,92.1496493 78.0561896,93.7438863 76.9260284,93.8203223 L74.7912796,93.9636398 L74.4923602,96.4737441 L74.4767064,96.6059542 C73.7754037,96.6246979 73.3268932,96.6523055 73.1997725,96.6607393 L71.0622938,96.8054218 L70.7674692,99.3155261 L61.7616682,175.354351 L63.6643791,175.834806 C64.5188246,176.050464 82.0281327,180.292664 93.3201896,170.069346 L94.5308815,170.276815 L108.08872,172.605384 L109.969592,172.928872 L111.217435,169.660768 L111.816341,169.763602 L113.695848,170.08709 L118.570495,157.316322 L120.57236,157.288152 L120.430408,172.419754 L122.132474,172.812853 L133.185668,175.369365 L132.578275,178.428171 L131.984531,181.432379 L134.535583,181.563412 L151.498919,182.434237 L153.884815,182.558445 L154.178275,179.730313 L154.197678,179.542202 L155.22654,179.595185 L157.611071,179.716664 L157.764449,178.238529 L158.49418,184.887014 L160.330009,184.919773 L176.026692,185.202313 L177.937592,185.236436 L178.724233,182.34204 L179.751583,182.360531 L181.663848,182.394654 L182.264417,180.188929 L183.161942,176.886855 C184.283167,178.815958 185.732502,180.451517 187.508474,181.723109 C193.320341,185.883412 199.851526,184.919773 204.561896,183.201327 L202.908967,186.516739 L201.438938,189.460891 L204.024114,190.390408 L216.847621,194.995678 L218.866351,195.71909 L220.357251,192.075626 L220.357251,192.075626 Z" id="Bang-background" fill="#1A1918"></path>
            <path d="M184.838264,161.019398 L184.838264,161.019398 L179.878521,179.264872 L164.181839,178.982332 L159.535621,136.632682 L155.41763,176.500891 L138.454294,175.627336 L139.576265,169.976531 L126.389687,166.92455 L126.53437,151.319318 L118.060891,151.440796 L112.236739,166.695242 L98.6775355,164.368038 L98.7226523,164.277423 C87.7364164,174.408191 67.9543507,169.956057 67.9543507,169.956057 L76.684436,96.2580853 C76.684436,96.2580853 102.612626,94.5137062 105.904834,109.422825 C109.198408,124.331943 96.7830142,136.538502 96.7830142,136.538502 C96.7830142,136.538502 106.273371,140.724714 105.52869,150.607828 L122.580171,116.360758 L136.745403,114.894825 L142.415318,155.640682 L150.735924,113.682768 L167.023621,113.902521 L175.189991,147.191773 L181.650199,110.529782 L198.346009,111.328265 L190.245561,141.127498 C190.552497,140.51893 190.871814,139.911703 191.203336,139.306578 C199.418844,124.311469 211.479355,115.547261 224.261915,119.20254 C237.043109,122.859185 240.166066,132.511962 240.166066,132.511962 L226.104569,141.561441 C226.104569,141.561441 222.660853,128.215166 211.775545,138.22146 C203.293877,146.017934 199.962085,160.735962 202.56637,163.157346 C208.202161,168.402768 218.433668,159.674047 218.433668,159.674047 L208.689441,157.572057 L215.226085,143.30036 L235.48163,151.230597 L219.954199,189.170161 L207.129327,184.564891 L212.213687,174.383886 C212.213687,174.383886 200.413877,182.823242 191.094142,176.151469 C186.733058,173.029637 184.749334,167.544556 184.838264,161.019398 Z M88.2085308,113.050806 L86.1051754,130.965498 C86.1051754,130.965498 93.178237,128.058199 94.9226161,120.241251 C96.6656303,112.424303 88.2085308,113.050806 88.2085308,113.050806 Z M82.5836588,158.300929 C82.5836588,158.300929 89.7440758,156.73945 91.3410427,149.448 C92.9366445,142.155185 84.3744455,143.697555 84.3744455,143.697555 L82.5836588,158.300929 Z M121.162009,143.316739 L126.621725,142.178389 L126.747299,128.684701 L121.162009,143.316739 Z" id="Bang-white" fill="#FFFFFF"></path>
        </g>
    </g>
</svg>