<?xml version="1.0" encoding="UTF-8" standalone="no"?>
<svg
   xmlns:dc="http://purl.org/dc/elements/1.1/"
   xmlns:cc="http://creativecommons.org/ns#"
   xmlns:rdf="http://www.w3.org/1999/02/22-rdf-syntax-ns#"
   xmlns:svg="http://www.w3.org/2000/svg"
   xmlns="http://www.w3.org/2000/svg"
   xmlns:xlink="http://www.w3.org/1999/xlink"
   xmlns:sodipodi="http://sodipodi.sourceforge.net/DTD/sodipodi-0.dtd"
   xmlns:inkscape="http://www.inkscape.org/namespaces/inkscape"
   width="216"
   height="391.99985"
   version="1.1"
   id="svg138"
   sodipodi:docname="car.svg"
   inkscape:version="0.92.2 (5c3e80d, 2017-08-06)">
  <metadata
     id="metadata142">
    <rdf:RDF>
      <cc:Work
         rdf:about="">
        <dc:format>image/svg+xml</dc:format>
        <dc:type
           rdf:resource="http://purl.org/dc/dcmitype/StillImage" />
        <dc:title>Maroon Car - Top View</dc:title>
      </cc:Work>
    </rdf:RDF>
  </metadata>
  <sodipodi:namedview
     pagecolor="#ffffff"
     bordercolor="#666666"
     borderopacity="1"
     objecttolerance="10"
     gridtolerance="10"
     guidetolerance="10"
     inkscape:pageopacity="0"
     inkscape:pageshadow="2"
     inkscape:window-width="1846"
     inkscape:window-height="1057"
     id="namedview140"
     showgrid="false"
     inkscape:zoom="0.88072928"
     inkscape:cx="674.2463"
     inkscape:cy="178.04851"
     inkscape:window-x="-8"
     inkscape:window-y="-8"
     inkscape:window-maximized="1"
     inkscape:current-layer="g136" />
  <title
     id="title77">Maroon Car - Top View</title>
  <defs
     id="defs100">
    <linearGradient
       id="linearGradient3759">
      <stop
         id="stop3761"
         offset="0"
         stop-color="#1a1a1a" />
      <stop
         id="stop3763"
         offset="1"
         stop-opacity="0"
         stop-color="#f30000" />
    </linearGradient>
    <linearGradient
       x1="889.6181"
       y1="328.01511"
       x2="864.66321"
       y2="320.92896"
       id="linearGradient4149"
       xlink:href="#linearGradient3759"
       gradientTransform="matrix(0.92933399,0,0,1.0760394,-179.02755,-55.533711)"
       gradientUnits="userSpaceOnUse" />
    <linearGradient
       x1="875.36993"
       y1="333.27185"
       x2="810.15125"
       y2="329.95105"
       id="linearGradient4153"
       xlink:href="#linearGradient3759"
       gradientTransform="matrix(0.9293339,0,0,1.0760395,-179.02755,-55.533711)"
       gradientUnits="userSpaceOnUse" />
    <linearGradient
       x1="919.64374"
       y1="322.75696"
       x2="850.60913"
       y2="317.56107"
       id="linearGradient4155"
       xlink:href="#linearGradient3759"
       gradientTransform="matrix(0.92933399,0,0,1.0760394,-179.02755,-55.533711)"
       gradientUnits="userSpaceOnUse" />
    <linearGradient
       x1="889.6181"
       y1="114.34772"
       x2="864.66321"
       y2="121.43389"
       id="linearGradient4185"
       xlink:href="#linearGradient3759"
       gradientTransform="matrix(0.92933399,0,0,1.0760394,-179.02755,-55.533711)"
       gradientUnits="userSpaceOnUse" />
    <linearGradient
       x1="921.60571"
       y1="126.79039"
       x2="908.93622"
       y2="126.73051"
       id="linearGradient4187"
       xlink:href="#linearGradient3759"
       gradientTransform="matrix(0.92933399,0,0,1.0760394,-179.02755,-55.533711)"
       gradientUnits="userSpaceOnUse" />
    <linearGradient
       x1="919.64374"
       y1="119.6059"
       x2="850.60913"
       y2="124.80183"
       id="linearGradient4189"
       xlink:href="#linearGradient3759"
       gradientTransform="matrix(0.92933399,0,0,1.0760394,-179.02755,-55.533711)"
       gradientUnits="userSpaceOnUse" />
    <linearGradient
       x1="725.50665"
       y1="146.04549"
       x2="714.22211"
       y2="154.43002"
       id="linearGradient4191"
       xlink:href="#linearGradient3759"
       gradientTransform="matrix(1.1932885,0,0,0.83802033,-179.02755,-55.533711)"
       gradientUnits="userSpaceOnUse" />
    <linearGradient
       x1="711.66705"
       y1="134.52667"
       x2="674.18188"
       y2="195.35353"
       id="linearGradient4193"
       xlink:href="#linearGradient3759"
       gradientTransform="matrix(1.1932885,0,0,0.83802033,-179.02755,-55.533711)"
       gradientUnits="userSpaceOnUse" />
    <linearGradient
       x1="897.92731"
       y1="120.00386"
       x2="818.42194"
       y2="118.96464"
       id="linearGradient4195"
       xlink:href="#linearGradient3759"
       gradientTransform="matrix(0.92933391,0,0,1.0760395,-179.02755,-55.533711)"
       gradientUnits="userSpaceOnUse" />
    <linearGradient
       x1="875.36993"
       y1="109.09092"
       x2="810.15125"
       y2="112.41172"
       id="linearGradient4197"
       xlink:href="#linearGradient3759"
       gradientTransform="matrix(0.9293339,0,0,1.0760395,-179.02755,-55.533711)"
       gradientUnits="userSpaceOnUse" />
    <linearGradient
       x1="223.76582"
       y1="88.803337"
       x2="197.91623"
       y2="96.967201"
       id="linearGradient4199"
       xlink:href="#linearGradient3759"
       gradientTransform="matrix(0.89436431,0,0,1.1181126,-179.02755,-55.533711)"
       gradientUnits="userSpaceOnUse" />
    <linearGradient
       x1="239.45888"
       y1="89.060387"
       x2="215.44844"
       y2="92.336143"
       id="linearGradient4201"
       xlink:href="#linearGradient3759"
       gradientTransform="matrix(0.91644109,0,0,1.0911776,-179.02755,-55.533711)"
       gradientUnits="userSpaceOnUse" />
    <linearGradient
       x1="921.60571"
       y1="315.57254"
       x2="908.93622"
       y2="315.63242"
       id="linearGradient4203"
       xlink:href="#linearGradient3759"
       gradientTransform="matrix(0.92933399,0,0,1.0760394,-179.02755,-55.533711)"
       gradientUnits="userSpaceOnUse" />
    <linearGradient
       x1="725.50659"
       y1="421.95981"
       x2="714.22205"
       y2="413.5752"
       id="linearGradient4205"
       xlink:href="#linearGradient3759"
       gradientTransform="matrix(1.1932886,0,0,0.83802026,-179.02755,-55.533711)"
       gradientUnits="userSpaceOnUse" />
    <linearGradient
       x1="711.66699"
       y1="433.47861"
       x2="674.18182"
       y2="372.65176"
       id="linearGradient4207"
       xlink:href="#linearGradient3759"
       gradientTransform="matrix(1.1932886,0,0,0.83802026,-179.02755,-55.533711)"
       gradientUnits="userSpaceOnUse" />
    <linearGradient
       x1="897.92731"
       y1="322.35898"
       x2="818.42194"
       y2="323.39822"
       id="linearGradient4209"
       xlink:href="#linearGradient3759"
       gradientTransform="matrix(0.92933391,0,0,1.0760395,-179.02755,-55.533711)"
       gradientUnits="userSpaceOnUse" />
    <linearGradient
       x1="223.76581"
       y1="336.91391"
       x2="197.91621"
       y2="328.75003"
       id="linearGradient4211"
       xlink:href="#linearGradient3759"
       gradientTransform="matrix(0.8943644,0,0,1.1181125,-179.02755,-55.533711)"
       gradientUnits="userSpaceOnUse" />
    <linearGradient
       x1="239.45888"
       y1="347.16547"
       x2="215.44843"
       y2="343.88971"
       id="linearGradient4213"
       xlink:href="#linearGradient3759"
       gradientTransform="matrix(0.91644111,0,0,1.0911776,-179.02755,-55.533711)"
       gradientUnits="userSpaceOnUse" />
  </defs>
  <g
     id="g136"
     transform="matrix(0,-0.40589871,0.44980424,0,26.920301,320.02356)">
    <title
       id="title102">Layer 1</title>
    <path
       d="m 378.56022,-48.533621 c -1.50861,0.009 -4.72107,0.3049 -6.46869,0.9375 l -3.49994,1.5 8.65613,35.93753 -124.81116,0.2812496 c -2.43631,0.005 -4.88763,-0.01403 -7.34363,-0.03125 -4.91204,-0.0343 -9.86496,-0.1045496 -14.84359,-0.2187496 -7.29264,-0.16723 -14.66886,-0.41284 -22.06229,-0.71875 -0.39587,-0.01635 -0.79132,-0.04565 -1.18744,-0.0625 -14.93243,-0.63012 -30.00723,-1.4917 -45.03076,-2.4375 -20.32623,-1.28271 -40.52008,-2.70733 -60.12439,-3.875 -14.528019,-0.86529 -28.732099,-1.57953 -42.374529,-2 -9.3692,-0.28869 -18.46383,-0.45654 -27.24972,-0.40625 -4.3158,0.02472 -8.56783,0.09333 -12.71862,0.21875 -4.15075,0.12549 -8.38012,0.35535 -12.6560901,0.65625 -2.138,0.15052 -4.27776,0.31025 -6.43744001,0.5 -6.46889999,0.56842 -13.04497989,1.32141 -19.59353989,2.1875 -0.0101,0.001 -0.0211,-9.7e-4 -0.0312,0 -4.37251,0.57862 -8.71848,1.22553 -13.06236,1.90625 -4.34388,0.68073 -8.67339,1.39783 -12.93735,2.15625 -4.25372,0.75666 -8.47041,1.56537 -12.59361,2.3749996 -0.01,0.002 -0.0212,-0.002 -0.0312,0 -2.06637,0.40589 -4.06973,0.8042 -6.09369,1.21875 -6.0614,1.2416397 -11.93371,2.5160597 -17.49981,3.7812497 -0.0101,0.002 -0.0211,-0.002 -0.0312,0 -3.71646,0.84491 -7.28725,1.67517 -10.71863,2.5 -6.86383,1.64844002 -13.115331,3.23462 -18.531051,4.65625 -8.1236,2.13251 -14.38243,3.92725 -18.09355,5 -2.47364,0.71582 -3.81247,1.125 -3.81247,1.125 l -13.68734,3.7499997 c -0.90241,0.248781 -1.77813,0.692941 -2.62498,1.312501 -0.28772,0.21051 -0.56234,0.43598 -0.84375,0.6875 -1.09958,0.97962 -2.15099,2.27069 -3.1562,3.84375 -0.005,0.007 0.005,0.02436 0,0.03125 -0.50038,0.78473 -1.02247,1.64045 -1.49999,2.5625 -0.004,0.008 0.004,0.0232 0,0.03119 -0.47758,0.92371 -0.95115,1.91419 -1.40623,2.96875 -0.004,0.009 0.004,0.02216 0,0.03119 -3.66703,8.50946 -6.62001,21.13135 -8.93741,36.21875 -0.001,0.01 0.001,0.0212 0,0.0312 -0.0359,0.23419 -0.0581,0.4834 -0.0937,0.71875 -0.50462,3.33148 -0.99204,6.79822 -1.43749,10.34375 -0.0305,0.24268 -0.0635,0.47522 -0.0937,0.71875 -0.50155,4.04315 -0.94671,8.20245 -1.37497,12.46875 -0.001,0.01 9.9e-4,0.0211 0,0.0312 -0.21356,2.12842 -0.42913,4.2948 -0.62501,6.46875 -9.2e-4,0.01 9.3e-4,0.0209 0,0.0312 -0.1958,2.17437 -0.38397,4.34924 -0.56249,6.5625 -8.3e-4,0.01 8.3e-4,0.0209 0,0.0312 -0.35775,4.437621 -0.67817,8.945801 -0.96874,13.500001 -6.5e-4,0.0101 6.6e-4,0.0209 0,0.0312 -0.87259,13.68408 -1.45958,27.78869 -1.78123,41.5625 -2.4e-4,0.0104 2.4e-4,0.0207 0,0.0312 -0.21443,9.18939 -0.3126,18.21331 -0.3126,26.90655 0,0.96765 0.0276,1.96289 0.0312,2.9375 -0.004,0.97461 -0.0312,1.96985 -0.0312,2.9375 0,8.69318 0.0982,17.71716 0.3125,26.90625 2.4e-4,0.0105 -2.4e-4,0.0208 0,0.0312 0.32165,13.7738 0.90864,27.87842 1.78123,41.5625 6.6e-4,0.0103 -6.5e-4,0.0211 0,0.0312 0.29057,4.5542 0.61099,9.06238 0.96874,13.5 8.3e-4,0.0103 -8.3e-4,0.0211 0,0.0312 0.17852,2.21332 0.36669,4.38818 0.56249,6.5625 9.3e-4,0.0103 -9.2e-4,0.0211 0,0.0312 0.19588,2.17395 0.41145,4.34033 0.62501,6.46875 9.9e-4,0.0102 -0.001,0.0211 0,0.0312 0.42825,4.26629 0.87341,8.42559 1.37497,12.46875 0.0302,0.24353 0.0633,0.47607 0.0937,0.71875 0.44545,3.54553 0.93287,7.01226 1.43749,10.34375 0.0357,0.23529 0.0578,0.48455 0.0937,0.71875 0.001,0.01 -0.001,0.0215 0,0.0312 2.31739,15.0874 5.27037,27.70929 8.93741,36.21875 0.004,0.009 -0.004,0.0226 0,0.0312 0.45508,1.05457 0.92865,2.04505 1.40623,2.96875 0.004,0.008 -0.004,0.0231 0,0.0312 0.47752,0.92206 0.99961,1.77777 1.49999,2.5625 0.005,0.007 -0.005,0.0242 0,0.0312 1.0052,1.57306 2.05662,2.86414 3.1562,3.84375 0.28141,0.25153 0.55603,0.47699 0.84375,0.6875 0.84685,0.61957 1.72257,1.06372 2.62497,1.3125 l 13.68735,3.75 c 0,0 1.33883,0.40918 3.81247,1.125 3.71112,1.07276 9.96996,2.8675 18.09355,5 5.41573,1.42163 11.667231,3.00782 18.531041,4.65625 3.4314,0.82483 7.00218,1.65509 10.71863,2.5 0.0102,0.002 0.0211,-0.002 0.0312,0 5.56609,1.2652 11.43842,2.53962 17.4998,3.78125 2.02396,0.41455 4.02733,0.81287 6.09371,1.21875 0.0101,0.002 0.0212,-0.002 0.0312,0 4.1232,0.80963 8.33989,1.61835 12.59361,2.375 4.26396,0.75843 8.59348,1.47547 12.93736,2.15625 4.34388,0.68073 8.68984,1.32764 13.06237,1.90625 0.0102,9.8e-4 0.0211,-0.001 0.0312,0 6.54856,0.86609 13.1246299,1.61908 19.59354989,2.1875 2.15967001,0.18976 4.29942001,0.34949 6.43742001,0.5 4.2759901,0.30091 8.5053401,0.53077 12.6561101,0.65625 4.15078,0.12543 8.40282,0.19403 12.71862,0.21875 8.78589,0.0503 17.88052,-0.11755 27.24969,-0.40625 13.64246,-0.42047 27.84651,-1.1347 42.374529,-2 19.60437,-1.16766 39.79816,-2.59228 60.12439,-3.875 15.02356,-0.9458 30.09839,-1.80737 45.03076,-2.4375 0.39609,-0.0168 0.79157,-0.0461 1.18747,-0.0625 7.39346,-0.3059 14.76968,-0.55151 22.06229,-0.71875 4.97863,-0.11425 9.93158,-0.18451 14.84356,-0.21875 2.45606,-0.0172 4.90735,-0.0365 7.34369,-0.0312 l 124.8111,0.28125 -8.65613,35.9375 3.49994,1.5 c 1.74762,0.63263 4.96008,0.92853 6.46869,0.9375 0.84863,0.005 1.75507,-0.0741 2.6875,-0.25 0.31067,-0.0585 0.62353,-0.14105 0.9375,-0.21875 0.30456,-0.0756 0.63257,-0.15667 0.9375,-0.25 0.62842,-0.19305 1.26349,-0.42151 1.87494,-0.6875 1.82153,-0.79351 3.53424,-1.93139 4.78119,-3.3125 0.01,-0.0107 0.0217,-0.0206 0.0312,-0.0312 0.62475,-0.69787 1.11224,-1.45123 1.46869,-2.28125 l 12.15612,-31.3125 109.93634,0.25 c 0.74689,0.37391 1.47602,0.74512 2.21869,1.09375 2.97919,1.39954 5.91095,2.59705 8.84369,3.625 1.46228,0.51258 2.91773,0.97553 4.37494,1.40625 5.09998,1.50751 10.18793,2.55152 15.34357,3.25 2.94623,0.39936 5.9259,0.69391 8.93744,0.90625 1.50567,0.10614 3.03393,0.18012 4.56244,0.25 3.057,0.13996 6.13855,0.21283 9.31237,0.25 6.34748,0.0741 12.97937,0 19.99982,0 10.41004,0 20.32221,-0.53118 29.78089,-1.5625 3.7835,-0.41247 7.49108,-0.89746 11.12487,-1.46875 7.26764,-1.14251 14.22834,-2.61889 20.90607,-4.375 1.66937,-0.43902 3.33569,-0.89874 4.96869,-1.375 4.89899,-1.42877 9.61279,-3.02539 14.18732,-4.78125 1.5249,-0.58526 3.04205,-1.16052 4.53125,-1.78125 2.97827,-1.24145 5.88195,-2.55694 8.71862,-3.9375 1.41834,-0.69024 2.83551,-1.40057 4.21869,-2.125 2.76642,-1.44873 5.4668,-2.97998 8.09369,-4.5625 1.31348,-0.79126 2.59607,-1.61346 3.87494,-2.4375 6.39429,-4.12011 12.36304,-8.62548 17.90607,-13.53125 4.42865,-3.91943 8.60156,-8.07977 12.49988,-12.46875 0.005,-0.006 -0.005,-0.0254 0,-0.0312 0.97039,-1.0929 1.93695,-2.19159 2.87494,-3.3125 0.005,-0.006 -0.005,-0.0251 0,-0.0312 0.93774,-1.12091 1.87573,-2.25775 2.78125,-3.40625 0.005,-0.006 -0.005,-0.0249 0,-0.0312 2.72558,-3.45819 5.31323,-7.01892 7.74987,-10.71875 0.005,-0.007 -0.005,-0.024 0,-0.0312 0.80884,-1.22852 1.62891,-2.46436 2.40625,-3.71875 0.005,-0.008 -0.005,-0.0238 0,-0.0312 2.34052,-3.77808 4.56678,-7.65247 6.62494,-11.65625 0.004,-0.008 -0.004,-0.0231 0,-0.0312 0.68299,-1.32916 1.34772,-2.6781 1.99994,-4.03125 0.004,-0.008 -0.004,-0.0229 0,-0.0312 0.65204,-1.35327 1.31604,-2.71692 1.9375,-4.09375 0.004,-0.009 -0.004,-0.0227 0,-0.0312 1.2464,-2.76251 2.43805,-5.55169 3.56244,-8.40625 0.004,-0.009 -0.004,-0.0224 0,-0.0312 0.56024,-1.42291 1.09479,-2.86743 1.625,-4.3125 0.003,-0.009 -0.003,-0.0222 0,-0.0312 0.53003,-1.44519 1.06232,-2.90796 1.5625,-4.375 0.5,-1.4671 0.99841,-2.94903 1.46875,-4.4375 0.003,-0.009 -0.003,-0.022 0,-0.0312 0.47009,-1.48858 0.93433,-2.99047 1.37494,-4.5 0.003,-0.01 -0.003,-0.0217 0,-0.0312 0.44049,-1.50959 0.87012,-3.03241 1.28125,-4.5625 0.003,-0.01 -0.003,-0.0217 0,-0.0312 1.23816,-4.61017 2.36835,-9.30603 3.34369,-14.09375 v -0.0312 c 0.32361,-1.58942 0.6112,-3.20441 0.90631,-4.8125 v -0.0312 c 2.07471,-11.31836 3.4621,-23.06201 4.15619,-35.21875 4.9e-4,-0.0103 -6.1e-4,-0.0211 0,-0.0312 0.098,-1.72791 0.17871,-3.47565 0.25,-5.21875 4.3e-4,-0.0103 -3.7e-4,-0.0211 0,-0.0312 0.14264,-3.49695 0.2467,-7.0072 0.28119,-10.5625 0,-0.0103 -6e-5,-0.0211 0,-0.0312 0.017,-1.78296 0.01,-3.57806 0,-5.375 0,-0.6358 -0.022,-1.27142 -0.031,-1.90625 0.01,-0.63483 0.031,-1.27045 0.031,-1.90625 0.01,-1.797 0.017,-3.59204 0,-5.375 -6e-5,-0.0102 0,-0.0209 0,-0.0312 -0.034,-3.55536 -0.13855,-7.06555 -0.28119,-10.5625 -3.7e-4,-0.0102 4.3e-4,-0.0209 0,-0.0312 -0.071,-1.7431 -0.15198,-3.49084 -0.25,-5.21875 -6.1e-4,-0.0103 4.9e-4,-0.0209 0,-0.0312 -0.69409,-12.15667 -2.08148,-23.90039 -4.15619,-35.21875 v -0.0312 c -0.29511,-1.60809 -0.5827,-3.22308 -0.90631,-4.8125 v -0.0312 c -0.97534,-4.78772 -2.10553,-9.48364 -3.34369,-14.09375 -0.003,-0.01 0.003,-0.0213 0,-0.0312 -0.41113,-1.53009 -0.84076,-3.05292 -1.28125,-4.5625 -0.003,-0.01 0.003,-0.0213 0,-0.0312 -0.44061,-1.509521 -0.90485,-3.011421 -1.37494,-4.500001 -0.003,-0.009 0.003,-0.0223 0,-0.0312 -0.47034,-1.48841 -0.96875,-2.97034 -1.46875,-4.4375 -0.50018,-1.46698 -1.03247,-2.92975 -1.5625,-4.375 -0.003,-0.009 0.003,-0.0223 0,-0.0312 -0.53021,-1.44507 -1.06476,-2.88965 -1.625,-4.3125 -0.004,-0.009 0.004,-0.0223 0,-0.0312 -1.12439,-2.85456 -2.31604,-5.64374 -3.56244,-8.40625 -0.004,-0.008 0.004,-0.0223 0,-0.0312 -0.62146,-1.37683 -1.28546,-2.74048 -1.9375,-4.09375 -0.004,-0.008 0.004,-0.0233 0,-0.0312 -0.65222,-1.35315 -1.31695,-2.70209 -1.99994,-4.03125 -0.004,-0.008 0.004,-0.0233 0,-0.0312 -2.05816,-4.00378 -4.28442,-7.87817 -6.62494,-11.65625 -0.005,-0.007 0.005,-0.0233 0,-0.0312 -0.77734,-1.25433 -1.59741,-2.49017 -2.40625,-3.71875 -0.005,-0.007 0.005,-0.0242 0,-0.0312 -2.43664,-3.69989 -5.02429,-7.26056 -7.74987,-10.71875 -0.005,-0.006 0.005,-0.02527 0,-0.03119 -0.90552,-1.1485 -1.84351,-2.28534 -2.78125,-3.40625 -0.005,-0.006 0.005,-0.02527 0,-0.03119 -0.93799,-1.12091 -1.90455,-2.2196 -2.87494,-3.3125 -0.005,-0.006 0.005,-0.02533 0,-0.03119 -3.89832,-4.38897 -8.07123,-8.54931 -12.49988,-12.46875 -5.54303,-4.90576 -11.51178,-9.411191 -17.90607,-13.5312507 -1.27887,-0.82403 -2.56146,-1.64624 -3.87494,-2.4375 -2.62689,-1.58252 -5.32727,-3.11377 -8.09369,-4.56249998 -1.38318,-0.72442 -2.80035,-1.43475002 -4.21869,-2.12500002 -2.83667,-1.38055 -5.74035,-2.6961 -8.71862,-3.9375 -1.4892,-0.62072 -3.00635,-1.19598 -4.53125,-1.7812497 -4.57453,-1.75585 -9.28833,-3.3525296 -14.18732,-4.7812496 -1.633,-0.47625 -3.29932,-0.93597 -4.96869,-1.375 -6.67773,-1.7561 -13.63843,-3.23248 -20.90607,-4.375 -3.63379,-0.57128 -7.34137,-1.05627 -11.12487,-1.46875 -9.45856,-1.03259 -19.37067,-1.56384 -29.78077,-1.56384 -7.02044,0 -13.65234,-0.0741 -19.99975,0 -3.17383,0.03723 -6.25537,0.11011 -9.31244,0.25 -1.52844,0.06995 -3.0567,0.14392 -4.56244,0.25 -3.01154,0.2124 -5.99121,0.50696 -8.93738,0.90625 -5.15564,0.69849 -10.24359,1.74256 -15.34363,3.25 -1.45715,0.43079 -2.91266,0.89368 -4.37494,1.40625 -2.93267,1.02796 -5.8645,2.22547 -8.84362,3.625 -0.74268,0.34863 -1.47187,0.71985 -2.21875,1.09375 l -109.93628,0.25 -12.15611,-31.31249 c -0.35645,-0.83001 -0.84393,-1.58334 -1.46875,-2.28125 -0.01,-0.0105 -0.0213,-0.0206 -0.0312,-0.03122 -1.24701,-1.38107 -2.95966,-2.51898 -4.78119,-3.3125 -0.61151,-0.26593 -1.24658,-0.49441 -1.875,-0.6875 -0.30493,-0.09329 -0.63287,-0.17437 -0.9375,-0.25 -0.31402,-0.07769 -0.62683,-0.16024 -0.93756,-0.21875 -0.93237,-0.1759 -1.83887,-0.25497 -2.68744,-0.25 z"
       id="path3855"
       stroke-miterlimit="4"
       inkscape:connector-curvature="0"
       style="fill:#000000;stroke:#191919;stroke-width:14;stroke-miterlimit:4" />
    <path
       d="m 378.56022,-48.533621 c -1.50861,0.009 -4.72107,0.30612 -6.46869,0.9375 l -3.49994,1.5 8.65613,35.84378 -124.81116,0.2812496 C 174.47367,-9.8057414 85.914041,-21.474811 19.501591,-19.471091 -46.910799,-17.467421 -132.62176,8.5289083 -132.62176,8.5289083 l -13.68734,3.7812497 c -19.25122,5.296271 -25.71848,97.367012 -25.71848,166.781252 0,1.11298 0.0266,2.25312 0.0312,3.375 -0.005,1.12183 -0.0312,2.26197 -0.0312,3.375 0,69.41419 6.46726,161.48493 25.71848,166.78125 l 13.68734,3.78125 c 0,0 85.710961,25.99634 152.123351,28 66.41245,2.00367 154.972079,-9.6654 232.934969,-9.5 l 124.81116,0.28125 -8.65613,35.84375 3.49994,1.5 c 1.74762,0.63135 4.96008,0.92853 6.46869,0.9375 0.84857,0.005 1.75507,-0.0744 2.68744,-0.25 0.31073,-0.0584 0.62353,-0.14123 0.9375,-0.21875 0.30462,-0.0754 0.63263,-0.15686 0.9375,-0.25 0.62848,-0.19268 1.26349,-0.42205 1.875,-0.6875 1.82153,-0.79205 3.53424,-1.90277 4.78119,-3.28125 0.01,-0.0107 0.0217,-0.0208 0.0312,-0.0312 0.62481,-0.69653 1.1123,-1.45276 1.46875,-2.28125 l 12.15612,-31.25 109.93628,0.25 c 23.90039,11.94239 45.51123,10.71875 73.59296,10.71875 133.24884,0 187.62628,-86.5863 186.99811,-201.375 0,-0.78015 -0.019,-1.56561 -0.031,-2.34375 0.012,-0.77807 0.031,-1.56353 0.031,-2.34375 C 774.59044,65.334079 720.213,-21.252291 586.96416,-21.252291 c -28.08173,0 -49.69257,-1.22363 -73.59296,10.71875 l -109.93628,0.25 -12.15612,-31.24997 c -0.35645,-0.82846 -0.84394,-1.58468 -1.46875,-2.28125 -0.01,-0.0104 -0.0213,-0.02059 -0.0312,-0.03121 -1.24695,-1.37848 -2.95966,-2.48923 -4.78119,-3.28125 -0.61151,-0.26545 -1.24652,-0.49482 -1.875,-0.6875 -0.30487,-0.09308 -0.63288,-0.1746 -0.9375,-0.25 -0.31397,-0.07758 -0.62677,-0.16034 -0.9375,-0.21875 -0.93237,-0.1756 -1.83887,-0.25498 -2.68744,-0.25 z"
       id="path2853"
       inkscape:connector-curvature="0"
       style="fill:#000000" />
    <path
       d="m 168.37534,313.00963 c -33.36407,0 -65.30688,1.79998 -94.811439,5.0625 25.6602,48.71368 97.985029,30.26531 205.560279,31.53125 49.68634,0.58471 89.54309,1.87927 121.52991,2.375 -47.15967,-23.33417 -133.52667,-38.96875 -232.27875,-38.96875 z"
       id="path3643"
       inkscape:connector-curvature="0"
       style="opacity:0.9;fill:#7f7f7f" />
    <path
       d="m 168.37534,313.00963 c -3.20642,0 -6.38305,0.0295 -9.56238,0.0625 0.81827,16.17102 6.42804,30.25653 14.5936,38.84375 4.67142,-0.0756 9.49509,-0.19654 14.43735,-0.34375 -8.56568,-8.19233 -14.59262,-22.22803 -15.71857,-38.5625 -1.25128,-0.005 -2.49469,0 -3.75,0 z"
       id="path3658"
       inkscape:connector-curvature="0"
       style="opacity:0.5;fill:#000000" />
    <path
       d="m 757.05649,285.27318 -5.09368,0.59375 c -21.54474,2.51269 -37.68824,25.97857 -39.28083,54.53125 l -0.375,7.125 5.24994,-4.84375 c 15.88916,-14.68043 28.30316,-32.50739 37.40583,-52.75 l 2.09375,-4.65625 z"
       id="path3707"
       stroke-miterlimit="4"
       inkscape:connector-curvature="0"
       style="fill:#ffff00;fill-rule:nonzero;stroke:#191919;stroke-width:5;stroke-miterlimit:4" />
    <path
       d="m 551.50987,296.27128 c 0,0 79.67724,-22.59643 105.37628,-31.98181 26.83941,-9.80182 98.85888,-39.14563 98.85888,-39.14563 0,0 -8.74096,42.46967 -30.48285,57.91809 -77.22326,54.86969 -232.68585,53.85364 -232.68585,53.85364"
       id="path3715"
       stroke-miterlimit="4"
       inkscape:connector-curvature="0"
       style="opacity:0.5;fill:none;stroke:#292929;stroke-width:6;stroke-linecap:round;stroke-linejoin:round;stroke-miterlimit:4" />
    <path
       d="m 638.0048,275.61106 -4.43744,2.34375 c 0.98914,1.1568 1.79547,2.42865 2.37494,3.84375 4.79791,11.71705 -10.73584,29.23597 -26.8747,35.78125 -0.51672,0.2096 -1.81286,0.84064 -3.40619,1.65625 l 13.62482,-3.875 c 17.30579,-8.45764 27.47046,-23.08197 22.99976,-34 -0.91614,-2.23736 -2.37518,-4.16607 -4.28119,-5.75 z"
       id="path3757"
       style="fill:url(#linearGradient4149)"
       inkscape:connector-curvature="0" />
    <path
       d="m 646.58897,271.15001 -4.43744,2.34375 c 0.98913,1.15679 1.79547,2.42865 2.37494,3.84375 4.79791,11.71704 -10.73584,29.23596 -26.8747,35.78125 -0.51678,0.20959 -1.81286,0.84063 -3.40619,1.65625 l 13.62482,-3.875 c 17.30579,-8.45765 27.47046,-23.08197 22.99976,-34 -0.91614,-2.23737 -2.37519,-4.16608 -4.28119,-5.75 z"
       id="path3787"
       style="fill:url(#linearGradient4203)"
       inkscape:connector-curvature="0" />
    <path
       d="m 652.77604,269.73576 -4.43744,2.34375 c 0.98914,1.1568 1.79547,2.42865 2.37494,3.84375 4.79791,11.71704 -10.73584,29.23596 -26.8747,35.78125 -0.51672,0.20959 -1.81286,0.84064 -3.40619,1.65625 l 13.62482,-3.875 c 17.30579,-8.45764 27.47046,-23.08197 22.99976,-34 -0.91614,-2.23737 -2.37518,-4.16608 -4.28119,-5.75 z"
       id="path3752"
       style="fill:url(#linearGradient4155)"
       inkscape:connector-curvature="0" />
    <path
       d="m 669.68247,265.46251 -6.18744,1.84375 c 0.96015,1.71283 1.65448,3.53228 2.03125,5.46875 3.11939,16.03387 -20.96197,34.28357 -43.03082,38.5 -3.39496,0.64862 -28.88397,8.57598 -32.1579,8.80444 v 4.125 l 41.43903,-12.14819 c 26.2854,-5.49628 44.94885,-22.448 41.87457,-38.25 -0.59564,-3.06165 -1.95605,-5.85956 -3.96869,-8.34375 z"
       id="path3735"
       style="fill:url(#linearGradient4205)"
       inkscape:connector-curvature="0" />
    <path
       d="m 669.68247,265.46251 -6.18744,1.84375 c 0.96015,1.71283 1.65448,3.53228 2.03125,5.46875 3.11939,16.03387 -20.96197,34.28357 -43.03082,38.5 -3.39496,0.64862 -28.88397,8.57598 -32.1579,8.80444 v 4.125 l 41.43903,-12.14819 c 26.2854,-5.49628 44.94885,-22.448 41.87457,-38.25 -0.59564,-3.06165 -1.95605,-5.85956 -3.96869,-8.34375 z"
       id="path3783"
       style="fill:url(#linearGradient4207)"
       inkscape:connector-curvature="0" />
    <path
       d="m 625.15818,280.23051 -3.96411,2.09375 c 0.88367,1.03333 1.604,2.16956 2.12164,3.43366 4.28607,10.4671 -9.59057,26.11718 -24.00775,31.96423 -0.46167,0.18719 -1.61951,0.75098 -3.04285,1.47955 l 12.17139,-3.46161 c 15.4596,-7.55542 24.53998,-20.61963 20.54614,-30.37298 -0.81842,-1.99866 -2.12182,-3.72162 -3.82446,-5.1366 z"
       id="path3799"
       style="fill:url(#linearGradient4209)"
       inkscape:connector-curvature="0" />
    <path
       d="m 611.35087,283.80381 -3.96405,2.09375 c 0.8836,1.03333 1.60394,2.16956 2.12158,3.43366 4.28607,10.4671 -9.59058,26.11712 -24.00775,31.96423 -0.46167,0.1872 -1.61951,0.75098 -3.04285,1.47955 l 12.17139,-3.46167 c 15.45959,-7.55535 24.53998,-20.61956 20.54614,-30.37292 -0.81842,-1.99866 -2.12176,-3.72162 -3.82446,-5.1366 z"
       id="path3803"
       style="fill:url(#linearGradient4153)"
       inkscape:connector-curvature="0" />
    <path
       d="m 1.3010509,303.49669 c 8.29303,-2.02338 15.4855301,-1.47882 19.7974701,5.78717 l -2.49336,17.89672 c -6.87511,6.17328 -13.7502301,4.95093 -20.6253501,0.15546 z"
       id="rect3861"
       style="fill:url(#linearGradient4211)"
       inkscape:connector-curvature="0" />
    <path
       d="m 21.577251,306.75999 c 8.15022,-1.2102 15.16667,-0.57281 18.84282,5.50812 l -2.37311,17.03375 c -6.48392,2.97479 -12.98291,5.20966 -19.63082,0.14795 z"
       id="path3864"
       style="fill:url(#linearGradient4213)"
       inkscape:connector-curvature="0" />
    <path
       d="m 168.37534,310.52318 c -33.45395,0 -65.49206,1.78936 -95.092689,5.0625 l -3.65622,0.40625 1.71872,3.25 c 6.67106,12.66442 16.5616,21.1134 29.062179,26.4375 12.50064,5.32409 27.57214,7.61261 45.09329,8.4375 35.04227,1.64978 79.95416,-2.63123 133.59231,-2 49.65863,0.58435 89.50788,1.87872 121.52991,2.375 l 1.125,-4.75 C 353.8986,326.06657 267.39127,310.52318 168.37534,310.52318 Z m 0,5 c 91.1695,0 171.74732,13.47863 220.09137,33.71875 -29.95202,-0.5824 -65.21191,-1.60602 -109.31128,-2.125 -53.9371,-0.63471 -98.97586,3.65216 -133.40481,2.03125 -17.21451,-0.81049 -31.76685,-3.10541 -43.40579,-8.0625 -10.453189,-4.45209 -18.485289,-11.15436 -24.499759,-20.90625 28.307469,-2.98304 58.734709,-4.65625 90.530269,-4.65625 z"
       id="path4025"
       inkscape:connector-curvature="0"
       style="opacity:0.9;fill:#191919;fill-rule:nonzero;stroke-width:5" />
    <path
       d="m 28.532741,65.153909 -77.74916,12.46875 c -27.15041,4.35413 -48.94715,48.772771 -50.999451,104.843751 2.052301,56.07099 23.849041,100.48963 50.999451,104.84375 l 77.74916,12.46875 c 13.29587,0 23.99975,-10.70398 23.99975,-24 V 89.153909 c 0,-13.29602 -10.70388,-24 -23.99975,-24 z"
       id="rect2864"
       stroke-miterlimit="4"
       inkscape:connector-curvature="0"
       style="opacity:0.9;fill:#7f7f7f;stroke:#191919;stroke-width:5;stroke-miterlimit:4" />
    <path
       d="m 459.9968,30.935159 c -2.96917,0 -5.89325,0.33216 -8.78112,0.96875 -0.0104,-0.01001 -0.0208,-0.02099 -0.0312,-0.03119 l -63.84308,12.3125 c -17.72779,6.60468 -31.99964,14.27198 -31.99964,32 V 288.74772 c 0,17.72797 14.27185,25.39533 31.99964,32 l 63.84308,12.3125 c 0.0105,-0.0102 0.0207,-0.0211 0.0312,-0.0312 2.88788,0.6366 5.81196,0.96875 8.78113,0.96875 45.39551,0 82.19757,-57.36267 82.31159,-151.53125 C 542.19425,88.297889 505.39219,30.935279 459.99674,30.935279 Z"
       id="path3703"
       stroke-miterlimit="4"
       inkscape:connector-curvature="0"
       style="opacity:0.9;fill:#7f7f7f;stroke:#191919;stroke-width:5;stroke-miterlimit:4;stroke-dashoffset:0" />
    <path
       d="m 168.37534,51.923019 c -33.36407,0 -65.30688,-1.79999 -94.811439,-5.0625 25.6602,-48.7136907 97.985029,-30.26532 205.560279,-31.53125 49.68634,-0.58472 89.54309,-1.87928 121.52991,-2.375 -47.15967,23.33416 -133.52667,38.96875 -232.27875,38.96875 z"
       id="path4157"
       inkscape:connector-curvature="0"
       style="opacity:0.9;fill:#7f7f7f" />
    <path
       d="m 168.37534,51.923019 c -3.20642,0 -6.38305,-0.0295 -9.56238,-0.0625 0.81827,-16.17102 6.42804,-30.25653 14.5936,-38.84375 4.67142,0.07562 9.49509,0.19653 14.43735,0.34375 -8.56568,8.19232 -14.59262,22.22802 -15.71857,38.5625 -1.25128,0.005 -2.49469,0 -3.75,0 z"
       id="path4159"
       inkscape:connector-curvature="0"
       style="opacity:0.5;fill:#000000" />
    <path
       d="m 757.05649,79.659469 -5.09368,-0.59375 c -21.54474,-2.5127 -37.68824,-25.97858 -39.28083,-54.53125 l -0.375,-7.125 5.24994,4.84375 c 15.88916,14.68042 28.30316,32.50738 37.40583,52.75 l 2.09375,4.65625 z"
       id="path4161"
       stroke-miterlimit="4"
       inkscape:connector-curvature="0"
       style="fill:#ffff00;fill-rule:nonzero;stroke:#191919;stroke-width:5;stroke-miterlimit:4" />
    <path
       d="m 551.50987,68.661359 c 0,0 79.67724,22.59643 105.37628,31.981811 26.83941,9.80182 98.85888,39.14563 98.85888,39.14563 0,0 -8.74096,-42.469671 -30.48285,-57.918091 -77.22326,-54.86969 -232.68585,-53.85358 -232.68585,-53.85358"
       id="path4163"
       stroke-miterlimit="4"
       inkscape:connector-curvature="0"
       style="opacity:0.5;fill:none;stroke:#292929;stroke-width:6;stroke-linecap:round;stroke-linejoin:round;stroke-miterlimit:4" />
    <path
       d="m 638.0048,89.321579 -4.43744,-2.34375 c 0.98914,-1.1568 1.79547,-2.42865 2.37494,-3.84375 4.79791,-11.71704 -10.73584,-29.23597 -26.8747,-35.78125 -0.51672,-0.2096 -1.81286,-0.84064 -3.40619,-1.65625 l 13.62482,3.875 c 17.30579,8.45764 27.47046,23.08197 22.99976,34 -0.91614,2.23736 -2.37518,4.16607 -4.28119,5.75 z"
       id="path4165"
       style="fill:url(#linearGradient4185)"
       inkscape:connector-curvature="0" />
    <path
       d="m 646.58897,93.782699 -4.43744,-2.34375 c 0.98913,-1.1568 1.79547,-2.42865 2.37494,-3.84375 4.79791,-11.71704 -10.73584,-29.23597 -26.8747,-35.78125 -0.51678,-0.2096 -1.81286,-0.84064 -3.40619,-1.65625 l 13.62482,3.875 c 17.30579,8.45764 27.47046,23.08197 22.99976,34 -0.91614,2.23736 -2.37519,4.16607 -4.28119,5.75 z"
       id="path4167"
       style="fill:url(#linearGradient4187)"
       inkscape:connector-curvature="0" />
    <path
       d="m 652.77604,95.196879 -4.43744,-2.34375 c 0.98914,-1.1568 1.79547,-2.42865 2.37494,-3.84375 4.79791,-11.71704 -10.73584,-29.23596 -26.8747,-35.78125 -0.51672,-0.20959 -1.81286,-0.84064 -3.40619,-1.65625 l 13.62482,3.875 c 17.30579,8.45764 27.47046,23.08197 22.99976,34 -0.91614,2.23737 -2.37518,4.16608 -4.28119,5.75 z"
       id="path4169"
       style="fill:url(#linearGradient4189)"
       inkscape:connector-curvature="0" />
    <path
       d="m 669.68247,99.470199 -6.18744,-1.84375 c 0.96015,-1.71283 1.65448,-3.53229 2.03125,-5.46875 3.11939,-16.03388 -20.96197,-34.28357 -43.03082,-38.5 -3.39496,-0.64863 -28.88397,-8.57599 -32.1579,-8.80445 v -4.125 l 41.43903,12.1482 c 26.2854,5.49627 44.94885,22.44799 41.87457,38.25 -0.59564,3.06164 -1.95605,5.85955 -3.96869,8.34375 z"
       id="path4171"
       style="fill:url(#linearGradient4191)"
       inkscape:connector-curvature="0" />
    <path
       d="m 669.68247,99.470199 -6.18744,-1.84375 c 0.96015,-1.71283 1.65448,-3.53229 2.03125,-5.46875 3.11939,-16.03388 -20.96197,-34.28357 -43.03082,-38.5 -3.39496,-0.64863 -28.88397,-8.57599 -32.1579,-8.80445 v -4.125 l 41.43903,12.1482 c 26.2854,5.49627 44.94885,22.44799 41.87457,38.25 -0.59564,3.06164 -1.95605,5.85955 -3.96869,8.34375 z"
       id="path4173"
       style="fill:url(#linearGradient4193)"
       inkscape:connector-curvature="0" />
    <path
       d="m 625.15818,84.702129 -3.96411,-2.09369 c 0.88367,-1.03339 1.604,-2.16956 2.12164,-3.43372 4.28607,-10.4671 -9.59057,-26.11718 -24.00775,-31.96417 -0.46167,-0.18725 -1.61951,-0.75104 -3.04285,-1.47961 l 12.17139,3.46161 c 15.4596,7.55542 24.53998,20.61963 20.54614,30.37298 -0.81842,1.99866 -2.12182,3.72162 -3.82446,5.1366 z"
       id="path4175"
       style="fill:url(#linearGradient4195)"
       inkscape:connector-curvature="0" />
    <path
       d="m 611.35087,81.128829 -3.96405,-2.09375 c 0.8836,-1.03333 1.60394,-2.16956 2.12158,-3.43366 4.28607,-10.4671 -9.59058,-26.11719 -24.00775,-31.96423 -0.46167,-0.1872 -1.61951,-0.75098 -3.04285,-1.47955 l 12.17139,3.46167 c 15.45959,7.55535 24.53998,20.61956 20.54614,30.37292 -0.81842,1.99866 -2.12176,3.72162 -3.82446,5.1366 z"
       id="path4177"
       style="fill:url(#linearGradient4197)"
       inkscape:connector-curvature="0" />
    <path
       d="m 1.3010509,61.435959 c 8.29303,2.02337 15.4855301,1.47882 19.7974701,-5.78717 l -2.49336,-17.89673 c -6.87511,-6.17328 -13.7502301,-4.95093 -20.6253501,-0.15546 l 3.32124,23.83935 z"
       id="path4179"
       style="fill:url(#linearGradient4199)"
       inkscape:connector-curvature="0" />
    <path
       d="m 21.577251,58.172709 c 8.15022,1.21021 15.16667,0.57282 18.84282,-5.50812 l -2.37311,-17.03375 c -6.48392,-2.97479 -12.98291,-5.20965 -19.63082,-0.14795 z"
       id="path4181"
       style="fill:url(#linearGradient4201)"
       inkscape:connector-curvature="0" />
    <path
       d="m 168.37534,54.409469 c -33.45395,0 -65.49206,-1.78937 -95.092689,-5.0625 l -3.65622,-0.40625 1.71872,-3.25 c 6.67106,-12.66443 16.5616,-21.11341 29.062179,-26.4375 12.50064,-5.3241 27.57214,-7.612611 45.09329,-8.437501 35.04227,-1.6497797 79.95416,2.631221 133.59231,2.000001 49.65863,-0.584421 89.50788,-1.878731 121.52991,-2.375001 l 1.125,4.750001 c -47.84924,23.67535 -134.35657,39.21875 -233.3725,39.21875 z m 0,-5 c 91.1695,0 171.74732,-13.47864 220.09137,-33.71875 -29.95202,0.58239 -65.21191,1.60601 -109.31128,2.125 -53.9371,0.6347 -98.97586,-3.65217 -133.40481,-2.03125 -17.21451,0.81048 -31.76685,3.1054 -43.40579,8.0625 -10.453189,4.45208 -18.485289,11.15435 -24.499759,20.90625 28.307469,2.98303 58.734709,4.65625 90.530269,4.65625 z"
       id="path4183"
       inkscape:connector-curvature="0"
       style="opacity:0.9;fill:#191919;fill-rule:nonzero;stroke-width:5" />
  </g>
</svg>
